solid OpenSCAD_Model
  facet normal 0 -1 0
    outer loop
      vertex 39.4221 0 43.5802
      vertex 39.4221 0 40.4198
      vertex 40.2207 0 40.6793
    endloop
  endfacet
  facet normal 0 -1 -0
    outer loop
      vertex 39.4221 0 43.5802
      vertex 21.5 0 40
      vertex 39.4221 0 40.4198
    endloop
  endfacet
  facet normal 0 -1 0
    outer loop
      vertex 21.5 0 40
      vertex 39.4221 0 39.5802
      vertex 39.4221 0 40.4198
    endloop
  endfacet
  facet normal 0 -1 0
    outer loop
      vertex 20.4635 0 38.5734
      vertex 39.4221 0 39.5802
      vertex 21.5 0 40
    endloop
  endfacet
  facet normal 0 -1 0
    outer loop
      vertex 37 0 16
      vertex 39.4221 0 39.5802
      vertex 20.4635 0 38.5734
    endloop
  endfacet
  facet normal 0 -1 0
    outer loop
      vertex 39.4221 0 63.5802
      vertex 39.4221 0 60.4198
      vertex 40.2207 0 60.6793
    endloop
  endfacet
  facet normal 0 -1 0
    outer loop
      vertex 34 0 60
      vertex 39.4221 0 60.4198
      vertex 33.5418 0 61.8589
    endloop
  endfacet
  facet normal 0 -1 0
    outer loop
      vertex 34 0 60
      vertex 39.4221 0 59.5802
      vertex 39.4221 0 60.4198
    endloop
  endfacet
  facet normal 0 -1 0
    outer loop
      vertex 33.5418 0 58.1411
      vertex 39.4221 0 59.5802
      vertex 34 0 60
    endloop
  endfacet
  facet normal 0 -1 -0
    outer loop
      vertex 39.4221 0 59.5802
      vertex 33.5418 0 58.1411
      vertex 39.4221 0 56.4198
    endloop
  endfacet
  facet normal 0 -1 0
    outer loop
      vertex 30.4821 0 63.9708
      vertex 60 0 80
      vertex 0 0 80
    endloop
  endfacet
  facet normal 0 -1 0
    outer loop
      vertex 60 0 80
      vertex 30.4821 0 63.9708
      vertex 40.2207 0 64.6793
    endloop
  endfacet
  facet normal 0 -1 0
    outer loop
      vertex 40.2207 0 64.6793
      vertex 30.4821 0 63.9708
      vertex 39.4221 0 64.4198
    endloop
  endfacet
  facet normal 0 -1 0
    outer loop
      vertex 0 0 80
      vertex 28.5816 0 63.7401
      vertex 30.4821 0 63.9708
    endloop
  endfacet
  facet normal 0 -1 0
    outer loop
      vertex 0 0 80
      vertex 27.006 0 62.6525
      vertex 28.5816 0 63.7401
    endloop
  endfacet
  facet normal 0 -1 0
    outer loop
      vertex 0 0 80
      vertex 26.1162 0 60.9573
      vertex 27.006 0 62.6525
    endloop
  endfacet
  facet normal 0 -1 0
    outer loop
      vertex 0 0 80
      vertex 26.1162 0 59.0427
      vertex 26.1162 0 60.9573
    endloop
  endfacet
  facet normal 0 -1 0
    outer loop
      vertex 18.7865 0 40.8817
      vertex 26.1162 0 59.0427
      vertex 0 0 80
    endloop
  endfacet
  facet normal 0 -1 0
    outer loop
      vertex 32.2723 0 56.7081
      vertex 39.4221 0 52.4198
      vertex 39.4221 0 55.5802
    endloop
  endfacet
  facet normal 0 -1 0
    outer loop
      vertex 39.4221 0 55.5802
      vertex 39.4221 0 52.4198
      vertex 40.2207 0 55.3207
    endloop
  endfacet
  facet normal 0 -1 0
    outer loop
      vertex 20.4635 0 41.4266
      vertex 30.4821 0 56.0292
      vertex 28.5816 0 56.2599
    endloop
  endfacet
  facet normal 0 -1 -0
    outer loop
      vertex 40.2207 0 55.3207
      vertex 39.4221 0 52.4198
      vertex 40.2207 0 52.6793
    endloop
  endfacet
  facet normal 0 -1 0
    outer loop
      vertex 30.4821 0 56.0292
      vertex 39.4221 0 51.5802
      vertex 39.4221 0 52.4198
    endloop
  endfacet
  facet normal 0 -1 0
    outer loop
      vertex 40.7143 0 48
      vertex 40.7143 0 52
      vertex 40.2207 0 48.6793
    endloop
  endfacet
  facet normal 0 -1 0
    outer loop
      vertex 39.4221 0 51.5802
      vertex 40.2207 0 48.6793
      vertex 40.2207 0 51.3207
    endloop
  endfacet
  facet normal 0 -1 0
    outer loop
      vertex 30.4821 0 56.0292
      vertex 39.4221 0 48.4198
      vertex 39.4221 0 51.5802
    endloop
  endfacet
  facet normal 0 -1 0
    outer loop
      vertex 39.4221 0 51.5802
      vertex 39.4221 0 48.4198
      vertex 40.2207 0 48.6793
    endloop
  endfacet
  facet normal 0 -1 0
    outer loop
      vertex 20.4635 0 41.4266
      vertex 28.5816 0 56.2599
      vertex 27.006 0 57.3475
    endloop
  endfacet
  facet normal 0 -1 0
    outer loop
      vertex 30.4821 0 56.0292
      vertex 39.4221 0 47.5802
      vertex 39.4221 0 48.4198
    endloop
  endfacet
  facet normal 0 -1 0
    outer loop
      vertex 39.4221 0 47.5802
      vertex 40.2207 0 44.6793
      vertex 40.2207 0 47.3207
    endloop
  endfacet
  facet normal 0 -1 0
    outer loop
      vertex 21.5 0 40
      vertex 30.4821 0 56.0292
      vertex 20.4635 0 41.4266
    endloop
  endfacet
  facet normal 0 -1 -0
    outer loop
      vertex 26.1162 0 59.0427
      vertex 18.7865 0 40.8817
      vertex 27.006 0 57.3475
    endloop
  endfacet
  facet normal 0 -1 0
    outer loop
      vertex 39.4221 0 47.5802
      vertex 39.4221 0 44.4198
      vertex 40.2207 0 44.6793
    endloop
  endfacet
  facet normal 0 -1 -0
    outer loop
      vertex 30.4821 0 56.0292
      vertex 21.5 0 40
      vertex 39.4221 0 47.5802
    endloop
  endfacet
  facet normal 0 -1 -0
    outer loop
      vertex 39.4221 0 44.4198
      vertex 21.5 0 40
      vertex 39.4221 0 43.5802
    endloop
  endfacet
  facet normal 0 -1 -0
    outer loop
      vertex 39.4221 0 47.5802
      vertex 21.5 0 40
      vertex 39.4221 0 44.4198
    endloop
  endfacet
  facet normal 0 -1 0
    outer loop
      vertex 27.006 0 57.3475
      vertex 18.7865 0 40.8817
      vertex 20.4635 0 41.4266
    endloop
  endfacet
  facet normal 0 -1 0
    outer loop
      vertex 0 0 80
      vertex 18.7865 0 39.1183
      vertex 18.7865 0 40.8817
    endloop
  endfacet
  facet normal 0 -1 0
    outer loop
      vertex 18.7865 0 39.1183
      vertex 23 0 16
      vertex 20.4635 0 38.5734
    endloop
  endfacet
  facet normal 0 -1 0
    outer loop
      vertex 0 0 0
      vertex 18.7865 0 39.1183
      vertex 0 0 80
    endloop
  endfacet
  facet normal 0 -1 -0
    outer loop
      vertex 18.7865 0 39.1183
      vertex 0 0 0
      vertex 23 0 16
    endloop
  endfacet
  facet normal 0 -1 -0
    outer loop
      vertex 23 0 12
      vertex 0 0 0
      vertex 37 0 12
    endloop
  endfacet
  facet normal 0 -1 -0
    outer loop
      vertex 23 0 16
      vertex 0 0 0
      vertex 23 0 12
    endloop
  endfacet
  facet normal 0 -1 0
    outer loop
      vertex 40.7143 0 64
      vertex 60 0 80
      vertex 40.2207 0 64.6793
    endloop
  endfacet
  facet normal 0 -1 0
    outer loop
      vertex 40.7143 0 60
      vertex 40.7143 0 64
      vertex 40.2207 0 63.3207
    endloop
  endfacet
  facet normal 0 -1 0
    outer loop
      vertex 39.4221 0 60.4198
      vertex 39.4221 0 63.5802
      vertex 33.5418 0 61.8589
    endloop
  endfacet
  facet normal 0 -1 0
    outer loop
      vertex 39.4221 0 63.5802
      vertex 40.2207 0 60.6793
      vertex 40.2207 0 63.3207
    endloop
  endfacet
  facet normal 0 -1 0
    outer loop
      vertex 40.7143 0 60
      vertex 40.2207 0 63.3207
      vertex 40.2207 0 60.6793
    endloop
  endfacet
  facet normal 0 -1 0
    outer loop
      vertex 40.7143 0 64
      vertex 40.7143 0 60
      vertex 50 0 52.5
    endloop
  endfacet
  facet normal 0 -1 0
    outer loop
      vertex 40.7143 0 56
      vertex 40.7143 0 60
      vertex 40.2207 0 59.3207
    endloop
  endfacet
  facet normal 0 -1 0
    outer loop
      vertex 39.4221 0 55.5802
      vertex 33.5418 0 58.1411
      vertex 32.2723 0 56.7081
    endloop
  endfacet
  facet normal 0 -1 0
    outer loop
      vertex 39.4221 0 59.5802
      vertex 39.4221 0 56.4198
      vertex 40.2207 0 59.3207
    endloop
  endfacet
  facet normal 0 -1 0
    outer loop
      vertex 40.7143 0 56
      vertex 40.2207 0 59.3207
      vertex 40.2207 0 56.6793
    endloop
  endfacet
  facet normal 0 -1 0
    outer loop
      vertex 40.7143 0 60
      vertex 40.7143 0 56
      vertex 50 0 52.5
    endloop
  endfacet
  facet normal 0 -1 0
    outer loop
      vertex 40.7143 0 52
      vertex 40.7143 0 56
      vertex 40.2207 0 55.3207
    endloop
  endfacet
  facet normal 0 -1 0
    outer loop
      vertex 40.7143 0 52
      vertex 40.2207 0 55.3207
      vertex 40.2207 0 52.6793
    endloop
  endfacet
  facet normal 0 -1 0
    outer loop
      vertex 40.7143 0 64
      vertex 50 0 52.5
      vertex 60 0 80
    endloop
  endfacet
  facet normal 0 -1 0
    outer loop
      vertex 51.7678 0 51.7678
      vertex 60 0 80
      vertex 50 0 52.5
    endloop
  endfacet
  facet normal 0 -1 0
    outer loop
      vertex 52.5 0 50
      vertex 60 0 80
      vertex 51.7678 0 51.7678
    endloop
  endfacet
  facet normal 0 -1 0
    outer loop
      vertex 40.7143 0 48
      vertex 40.7143 0 44
      vertex 48.2322 0 48.2322
    endloop
  endfacet
  facet normal 0 -1 -0
    outer loop
      vertex 48.2322 0 48.2322
      vertex 40.7143 0 44
      vertex 50 0 47.5
    endloop
  endfacet
  facet normal 0 -1 0
    outer loop
      vertex 40.7143 0 40
      vertex 40.7143 0 44
      vertex 40.2207 0 43.3207
    endloop
  endfacet
  facet normal 0 -1 0
    outer loop
      vertex 40.7143 0 44
      vertex 40.7143 0 40
      vertex 50 0 47.5
    endloop
  endfacet
  facet normal 0 -1 0
    outer loop
      vertex 39.4221 0 43.5802
      vertex 40.2207 0 40.6793
      vertex 40.2207 0 43.3207
    endloop
  endfacet
  facet normal 0 -1 0
    outer loop
      vertex 40.7143 0 40
      vertex 40.2207 0 43.3207
      vertex 40.2207 0 40.6793
    endloop
  endfacet
  facet normal 0 -1 -0
    outer loop
      vertex 50 0 47.5
      vertex 40.7143 0 40
      vertex 51.7678 0 48.2322
    endloop
  endfacet
  facet normal 0 -1 0
    outer loop
      vertex 40.2207 0 39.3207
      vertex 51.7678 0 48.2322
      vertex 40.7143 0 40
    endloop
  endfacet
  facet normal 0 -1 0
    outer loop
      vertex 37 0 16
      vertex 20.4635 0 38.5734
      vertex 23 0 16
    endloop
  endfacet
  facet normal 0 -1 -0
    outer loop
      vertex 39.4221 0 39.5802
      vertex 37 0 16
      vertex 40.2207 0 39.3207
    endloop
  endfacet
  facet normal 0 -1 0
    outer loop
      vertex 60 0 0
      vertex 40.2207 0 39.3207
      vertex 37 0 16
    endloop
  endfacet
  facet normal 0 -1 0
    outer loop
      vertex 60 0 0
      vertex 37 0 16
      vertex 37 0 12
    endloop
  endfacet
  facet normal 0 -1 0
    outer loop
      vertex 40.2207 0 39.3207
      vertex 60 0 0
      vertex 51.7678 0 48.2322
    endloop
  endfacet
  facet normal 0 -1 0
    outer loop
      vertex 52.5 0 50
      vertex 60 0 0
      vertex 60 0 80
    endloop
  endfacet
  facet normal 0 -1 0
    outer loop
      vertex 51.7678 0 48.2322
      vertex 60 0 0
      vertex 52.5 0 50
    endloop
  endfacet
  facet normal 0 -1 0
    outer loop
      vertex 60 0 0
      vertex 37 0 12
      vertex 0 0 0
    endloop
  endfacet
  facet normal 0 -1 0
    outer loop
      vertex 32.2723 0 63.2919
      vertex 39.4221 0 64.4198
      vertex 30.4821 0 63.9708
    endloop
  endfacet
  facet normal 0 -1 0
    outer loop
      vertex 33.5418 0 61.8589
      vertex 39.4221 0 64.4198
      vertex 32.2723 0 63.2919
    endloop
  endfacet
  facet normal 0 -1 -0
    outer loop
      vertex 39.4221 0 64.4198
      vertex 33.5418 0 61.8589
      vertex 39.4221 0 63.5802
    endloop
  endfacet
  facet normal 0 -1 0
    outer loop
      vertex 40.7143 0 56
      vertex 40.7143 0 52
      vertex 48.2322 0 51.7678
    endloop
  endfacet
  facet normal 0 -1 0
    outer loop
      vertex 40.7143 0 56
      vertex 48.2322 0 51.7678
      vertex 50 0 52.5
    endloop
  endfacet
  facet normal 0 -1 0
    outer loop
      vertex 40.2207 0 48.6793
      vertex 40.7143 0 52
      vertex 40.2207 0 51.3207
    endloop
  endfacet
  facet normal 0 -1 0
    outer loop
      vertex 40.7143 0 52
      vertex 47.5 0 50
      vertex 48.2322 0 51.7678
    endloop
  endfacet
  facet normal 0 -1 -0
    outer loop
      vertex 40.2207 0 59.3207
      vertex 39.4221 0 56.4198
      vertex 40.2207 0 56.6793
    endloop
  endfacet
  facet normal 0 -1 0
    outer loop
      vertex 39.4221 0 52.4198
      vertex 32.2723 0 56.7081
      vertex 30.4821 0 56.0292
    endloop
  endfacet
  facet normal 0 -1 0
    outer loop
      vertex 33.5418 0 58.1411
      vertex 39.4221 0 55.5802
      vertex 39.4221 0 56.4198
    endloop
  endfacet
  facet normal 0 -1 0
    outer loop
      vertex 40.7143 0 52
      vertex 40.7143 0 48
      vertex 47.5 0 50
    endloop
  endfacet
  facet normal 0 -1 -0
    outer loop
      vertex 47.5 0 50
      vertex 40.7143 0 48
      vertex 48.2322 0 48.2322
    endloop
  endfacet
  facet normal 0 -1 0
    outer loop
      vertex 40.2207 0 44.6793
      vertex 40.7143 0 48
      vertex 40.2207 0 47.3207
    endloop
  endfacet
  facet normal 0 -1 0
    outer loop
      vertex 40.7143 0 44
      vertex 40.7143 0 48
      vertex 40.2207 0 44.6793
    endloop
  endfacet
  facet normal 0 -1 0
    outer loop
      vertex 28.5816 0 63.7401
      vertex 32.2723 0 63.2919
      vertex 30.4821 0 63.9708
    endloop
  endfacet
  facet normal 0 -1 0
    outer loop
      vertex 27.006 0 62.6525
      vertex 32.2723 0 63.2919
      vertex 28.5816 0 63.7401
    endloop
  endfacet
  facet normal 0 -1 0
    outer loop
      vertex 27.006 0 62.6525
      vertex 33.5418 0 61.8589
      vertex 32.2723 0 63.2919
    endloop
  endfacet
  facet normal 0 -1 0
    outer loop
      vertex 26.1162 0 60.9573
      vertex 33.5418 0 61.8589
      vertex 27.006 0 62.6525
    endloop
  endfacet
  facet normal 0 -1 0
    outer loop
      vertex 26.1162 0 60.9573
      vertex 34 0 60
      vertex 33.5418 0 61.8589
    endloop
  endfacet
  facet normal 0 -1 0
    outer loop
      vertex 26.1162 0 59.0427
      vertex 34 0 60
      vertex 26.1162 0 60.9573
    endloop
  endfacet
  facet normal 0 -1 0
    outer loop
      vertex 26.1162 0 59.0427
      vertex 33.5418 0 58.1411
      vertex 34 0 60
    endloop
  endfacet
  facet normal 0 -1 0
    outer loop
      vertex 27.006 0 57.3475
      vertex 33.5418 0 58.1411
      vertex 26.1162 0 59.0427
    endloop
  endfacet
  facet normal 0 -1 0
    outer loop
      vertex 27.006 0 57.3475
      vertex 32.2723 0 56.7081
      vertex 33.5418 0 58.1411
    endloop
  endfacet
  facet normal 0 -1 0
    outer loop
      vertex 28.5816 0 56.2599
      vertex 32.2723 0 56.7081
      vertex 27.006 0 57.3475
    endloop
  endfacet
  facet normal 0 -1 0
    outer loop
      vertex 32.2723 0 56.7081
      vertex 28.5816 0 56.2599
      vertex 30.4821 0 56.0292
    endloop
  endfacet
  facet normal 0 -1 0
    outer loop
      vertex 18.7865 0 40.8817
      vertex 21.5 0 40
      vertex 20.4635 0 41.4266
    endloop
  endfacet
  facet normal 0 -1 0
    outer loop
      vertex 18.7865 0 39.1183
      vertex 21.5 0 40
      vertex 18.7865 0 40.8817
    endloop
  endfacet
  facet normal 0 -1 0
    outer loop
      vertex 21.5 0 40
      vertex 18.7865 0 39.1183
      vertex 20.4635 0 38.5734
    endloop
  endfacet
  facet normal 0 -1 0
    outer loop
      vertex 39.4221 0 56.4198
      vertex 40.7143 0 56
      vertex 40.2207 0 56.6793
    endloop
  endfacet
  facet normal 0 -1 0
    outer loop
      vertex 39.4221 0 55.5802
      vertex 40.7143 0 56
      vertex 39.4221 0 56.4198
    endloop
  endfacet
  facet normal 0 -1 0
    outer loop
      vertex 40.7143 0 56
      vertex 39.4221 0 55.5802
      vertex 40.2207 0 55.3207
    endloop
  endfacet
  facet normal 0 -1 0
    outer loop
      vertex 39.4221 0 40.4198
      vertex 40.7143 0 40
      vertex 40.2207 0 40.6793
    endloop
  endfacet
  facet normal 0 -1 0
    outer loop
      vertex 39.4221 0 39.5802
      vertex 40.7143 0 40
      vertex 39.4221 0 40.4198
    endloop
  endfacet
  facet normal 0 -1 0
    outer loop
      vertex 40.7143 0 40
      vertex 39.4221 0 39.5802
      vertex 40.2207 0 39.3207
    endloop
  endfacet
  facet normal 0 -1 0
    outer loop
      vertex 39.4221 0 48.4198
      vertex 40.7143 0 48
      vertex 40.2207 0 48.6793
    endloop
  endfacet
  facet normal 0 -1 0
    outer loop
      vertex 39.4221 0 47.5802
      vertex 40.7143 0 48
      vertex 39.4221 0 48.4198
    endloop
  endfacet
  facet normal 0 -1 0
    outer loop
      vertex 40.7143 0 48
      vertex 39.4221 0 47.5802
      vertex 40.2207 0 47.3207
    endloop
  endfacet
  facet normal 0 -1 0
    outer loop
      vertex 39.4221 0 60.4198
      vertex 40.7143 0 60
      vertex 40.2207 0 60.6793
    endloop
  endfacet
  facet normal 0 -1 0
    outer loop
      vertex 39.4221 0 59.5802
      vertex 40.7143 0 60
      vertex 39.4221 0 60.4198
    endloop
  endfacet
  facet normal 0 -1 0
    outer loop
      vertex 40.7143 0 60
      vertex 39.4221 0 59.5802
      vertex 40.2207 0 59.3207
    endloop
  endfacet
  facet normal 0 -1 0
    outer loop
      vertex 39.4221 0 64.4198
      vertex 40.7143 0 64
      vertex 40.2207 0 64.6793
    endloop
  endfacet
  facet normal 0 -1 0
    outer loop
      vertex 39.4221 0 63.5802
      vertex 40.7143 0 64
      vertex 39.4221 0 64.4198
    endloop
  endfacet
  facet normal 0 -1 0
    outer loop
      vertex 40.7143 0 64
      vertex 39.4221 0 63.5802
      vertex 40.2207 0 63.3207
    endloop
  endfacet
  facet normal 0 -1 0
    outer loop
      vertex 39.4221 0 44.4198
      vertex 40.7143 0 44
      vertex 40.2207 0 44.6793
    endloop
  endfacet
  facet normal 0 -1 0
    outer loop
      vertex 39.4221 0 43.5802
      vertex 40.7143 0 44
      vertex 39.4221 0 44.4198
    endloop
  endfacet
  facet normal 0 -1 0
    outer loop
      vertex 40.7143 0 44
      vertex 39.4221 0 43.5802
      vertex 40.2207 0 43.3207
    endloop
  endfacet
  facet normal 0 -1 0
    outer loop
      vertex 39.4221 0 52.4198
      vertex 40.7143 0 52
      vertex 40.2207 0 52.6793
    endloop
  endfacet
  facet normal 0 -1 0
    outer loop
      vertex 39.4221 0 51.5802
      vertex 40.7143 0 52
      vertex 39.4221 0 52.4198
    endloop
  endfacet
  facet normal 0 -1 0
    outer loop
      vertex 40.7143 0 52
      vertex 39.4221 0 51.5802
      vertex 40.2207 0 51.3207
    endloop
  endfacet
  facet normal 0 -1 0
    outer loop
      vertex 48.2322 0 51.7678
      vertex 51.7678 0 51.7678
      vertex 50 0 52.5
    endloop
  endfacet
  facet normal 0 -1 0
    outer loop
      vertex 47.5 0 50
      vertex 51.7678 0 51.7678
      vertex 48.2322 0 51.7678
    endloop
  endfacet
  facet normal 0 -1 0
    outer loop
      vertex 47.5 0 50
      vertex 52.5 0 50
      vertex 51.7678 0 51.7678
    endloop
  endfacet
  facet normal 0 -1 0
    outer loop
      vertex 48.2322 0 48.2322
      vertex 52.5 0 50
      vertex 47.5 0 50
    endloop
  endfacet
  facet normal 0 -1 0
    outer loop
      vertex 48.2322 0 48.2322
      vertex 51.7678 0 48.2322
      vertex 52.5 0 50
    endloop
  endfacet
  facet normal -0 -1 0
    outer loop
      vertex 51.7678 0 48.2322
      vertex 48.2322 0 48.2322
      vertex 50 0 47.5
    endloop
  endfacet
  facet normal 1 -0 0
    outer loop
      vertex 60 0 80
      vertex 60 30 0
      vertex 60 30 80
    endloop
  endfacet
  facet normal 1 0 0
    outer loop
      vertex 60 30 0
      vertex 60 0 80
      vertex 60 0 0
    endloop
  endfacet
  facet normal 0 0 1
    outer loop
      vertex 60 30 80
      vertex 12 15 80
      vertex 60 0 80
    endloop
  endfacet
  facet normal 0 0 1
    outer loop
      vertex 60 30 80
      vertex 11.6749 16.9482 80
      vertex 12 15 80
    endloop
  endfacet
  facet normal 0 0 1
    outer loop
      vertex 60 30 80
      vertex 10.7348 18.6853 80
      vertex 11.6749 16.9482 80
    endloop
  endfacet
  facet normal 0 0 1
    outer loop
      vertex 60 30 80
      vertex 9.28169 20.023 80
      vertex 10.7348 18.6853 80
    endloop
  endfacet
  facet normal -0 0 1
    outer loop
      vertex 0 30 80
      vertex 9.28169 20.023 80
      vertex 60 30 80
    endloop
  endfacet
  facet normal 0 0 1
    outer loop
      vertex 9.28169 20.023 80
      vertex 0 30 80
      vertex 7.47291 20.8164 80
    endloop
  endfacet
  facet normal 0 0 1
    outer loop
      vertex 0.0818319 15.9876 80
      vertex 0 30 80
      vertex 0.0818319 14.0124 80
    endloop
  endfacet
  facet normal 0 0 1
    outer loop
      vertex 0.723157 17.8557 80
      vertex 0 30 80
      vertex 0.0818319 15.9876 80
    endloop
  endfacet
  facet normal 0 0 1
    outer loop
      vertex 1.93631 19.4143 80
      vertex 0 30 80
      vertex 0.723157 17.8557 80
    endloop
  endfacet
  facet normal 0 0 1
    outer loop
      vertex 3.58983 20.4946 80
      vertex 0 30 80
      vertex 1.93631 19.4143 80
    endloop
  endfacet
  facet normal 0 0 1
    outer loop
      vertex 5.50452 20.9795 80
      vertex 0 30 80
      vertex 3.58983 20.4946 80
    endloop
  endfacet
  facet normal 0 0 1
    outer loop
      vertex 7.47291 20.8164 80
      vertex 0 30 80
      vertex 5.50452 20.9795 80
    endloop
  endfacet
  facet normal -0 0 1
    outer loop
      vertex 11.6749 13.0518 80
      vertex 60 0 80
      vertex 12 15 80
    endloop
  endfacet
  facet normal -0 0 1
    outer loop
      vertex 10.7348 11.3147 80
      vertex 60 0 80
      vertex 11.6749 13.0518 80
    endloop
  endfacet
  facet normal -0 0 1
    outer loop
      vertex 9.28169 9.977 80
      vertex 60 0 80
      vertex 10.7348 11.3147 80
    endloop
  endfacet
  facet normal 0 0 1
    outer loop
      vertex 0 0 80
      vertex 9.28169 9.977 80
      vertex 7.47291 9.1836 80
    endloop
  endfacet
  facet normal 0 0 1
    outer loop
      vertex 0 0 80
      vertex 7.47291 9.1836 80
      vertex 5.50452 9.02049 80
    endloop
  endfacet
  facet normal 0 0 1
    outer loop
      vertex 9.28169 9.977 80
      vertex 0 0 80
      vertex 60 0 80
    endloop
  endfacet
  facet normal 0 0 1
    outer loop
      vertex 3.58983 9.50536 80
      vertex 0 0 80
      vertex 5.50452 9.02049 80
    endloop
  endfacet
  facet normal 0 0 1
    outer loop
      vertex 1.93631 10.5857 80
      vertex 0 0 80
      vertex 3.58983 9.50536 80
    endloop
  endfacet
  facet normal 0 0 1
    outer loop
      vertex 0.723157 12.1443 80
      vertex 0 0 80
      vertex 1.93631 10.5857 80
    endloop
  endfacet
  facet normal 0 0 1
    outer loop
      vertex 0.0818319 14.0124 80
      vertex 0 0 80
      vertex 0.723157 12.1443 80
    endloop
  endfacet
  facet normal 0 0 1
    outer loop
      vertex 0 0 80
      vertex 0.0818319 14.0124 80
      vertex 0 30 80
    endloop
  endfacet
  facet normal 0 0 -1
    outer loop
      vertex 0 0 0
      vertex 60 30 0
      vertex 60 0 0
    endloop
  endfacet
  facet normal -0 0 -1
    outer loop
      vertex 60 30 0
      vertex 0 0 0
      vertex 0 30 0
    endloop
  endfacet
  facet normal -1 0 0
    outer loop
      vertex 0 0 0
      vertex 0 30 80
      vertex 0 30 0
    endloop
  endfacet
  facet normal -1 -0 0
    outer loop
      vertex 0 30 80
      vertex 0 0 0
      vertex 0 0 80
    endloop
  endfacet
  facet normal 0 1 0
    outer loop
      vertex 60 30 80
      vertex 56 30 16
      vertex 0 30 80
    endloop
  endfacet
  facet normal 0 1 -0
    outer loop
      vertex 60 30 0
      vertex 56 30 16
      vertex 60 30 80
    endloop
  endfacet
  facet normal 0 1 0
    outer loop
      vertex 56 30 2
      vertex 60 30 0
      vertex 4 30 2
    endloop
  endfacet
  facet normal 0 1 0
    outer loop
      vertex 56 30 16
      vertex 60 30 0
      vertex 56 30 2
    endloop
  endfacet
  facet normal 0 1 -0
    outer loop
      vertex 4 30 16
      vertex 0 30 80
      vertex 56 30 16
    endloop
  endfacet
  facet normal 0 1 0
    outer loop
      vertex 0 30 0
      vertex 4 30 16
      vertex 4 30 2
    endloop
  endfacet
  facet normal 0 1 0
    outer loop
      vertex 4 30 16
      vertex 0 30 0
      vertex 0 30 80
    endloop
  endfacet
  facet normal 0 1 0
    outer loop
      vertex 0 30 0
      vertex 4 30 2
      vertex 60 30 0
    endloop
  endfacet
  facet normal -1 0 0
    outer loop
      vertex 58 2 2
      vertex 58 28 78
      vertex 58 28 2
    endloop
  endfacet
  facet normal -1 -0 0
    outer loop
      vertex 58 28 78
      vertex 58 2 2
      vertex 58 2 78
    endloop
  endfacet
  facet normal 0 0 -1
    outer loop
      vertex 58 2 78
      vertex 12 15 78
      vertex 58 28 78
    endloop
  endfacet
  facet normal 0 0 -1
    outer loop
      vertex 58 2 78
      vertex 11.6749 13.0518 78
      vertex 12 15 78
    endloop
  endfacet
  facet normal 0 0 -1
    outer loop
      vertex 58 2 78
      vertex 10.7348 11.3147 78
      vertex 11.6749 13.0518 78
    endloop
  endfacet
  facet normal 0 0 -1
    outer loop
      vertex 58 2 78
      vertex 9.28169 9.977 78
      vertex 10.7348 11.3147 78
    endloop
  endfacet
  facet normal 0 0 -1
    outer loop
      vertex 2 2 78
      vertex 9.28169 9.977 78
      vertex 58 2 78
    endloop
  endfacet
  facet normal 0 0 -1
    outer loop
      vertex 9.28169 9.977 78
      vertex 2 2 78
      vertex 7.47291 9.1836 78
    endloop
  endfacet
  facet normal 0 0 -1
    outer loop
      vertex 7.47291 9.1836 78
      vertex 2 2 78
      vertex 5.50452 9.02049 78
    endloop
  endfacet
  facet normal 0 0 -1
    outer loop
      vertex 2 2 78
      vertex 3.58983 9.50536 78
      vertex 5.50452 9.02049 78
    endloop
  endfacet
  facet normal -0 0 -1
    outer loop
      vertex 3.58983 9.50536 78
      vertex 2 2 78
      vertex 2 10.544 78
    endloop
  endfacet
  facet normal 0 0 -1
    outer loop
      vertex 11.6749 16.9482 78
      vertex 58 28 78
      vertex 12 15 78
    endloop
  endfacet
  facet normal 0 0 -1
    outer loop
      vertex 10.7348 18.6853 78
      vertex 58 28 78
      vertex 11.6749 16.9482 78
    endloop
  endfacet
  facet normal 0 0 -1
    outer loop
      vertex 9.28169 20.023 78
      vertex 58 28 78
      vertex 10.7348 18.6853 78
    endloop
  endfacet
  facet normal 0 0 -1
    outer loop
      vertex 2 28 78
      vertex 9.28169 20.023 78
      vertex 7.47291 20.8164 78
    endloop
  endfacet
  facet normal 0 0 -1
    outer loop
      vertex 2 28 78
      vertex 7.47291 20.8164 78
      vertex 5.50452 20.9795 78
    endloop
  endfacet
  facet normal 0 0 -1
    outer loop
      vertex 9.28169 20.023 78
      vertex 2 28 78
      vertex 58 28 78
    endloop
  endfacet
  facet normal 0 0 -1
    outer loop
      vertex 3.58983 20.4946 78
      vertex 2 28 78
      vertex 5.50452 20.9795 78
    endloop
  endfacet
  facet normal 0 0 -1
    outer loop
      vertex 2 28 78
      vertex 3.58983 20.4946 78
      vertex 2 19.456 78
    endloop
  endfacet
  facet normal -0 0 1
    outer loop
      vertex 2 28 2
      vertex 58 2 2
      vertex 58 28 2
    endloop
  endfacet
  facet normal 0 0 1
    outer loop
      vertex 58 2 2
      vertex 2 28 2
      vertex 2 2 2
    endloop
  endfacet
  facet normal 1 0 0
    outer loop
      vertex 2 10.544 78
      vertex 2 2 78
      vertex 2 10.544 77.5
    endloop
  endfacet
  facet normal 1 0 0
    outer loop
      vertex 2 19.456 77.5
      vertex 2 28 78
      vertex 2 19.456 78
    endloop
  endfacet
  facet normal 1 0 0
    outer loop
      vertex 2 28 78
      vertex 2 19.456 77.5
      vertex 2 28 2
    endloop
  endfacet
  facet normal 1 -0 0
    outer loop
      vertex 2 10.544 77.5
      vertex 2 28 2
      vertex 2 19.456 77.5
    endloop
  endfacet
  facet normal 1 0 0
    outer loop
      vertex 2 2 2
      vertex 2 10.544 77.5
      vertex 2 2 78
    endloop
  endfacet
  facet normal 1 0 0
    outer loop
      vertex 2 10.544 77.5
      vertex 2 2 2
      vertex 2 28 2
    endloop
  endfacet
  facet normal 0 -1 0
    outer loop
      vertex 2 28 2
      vertex 58 28 78
      vertex 2 28 78
    endloop
  endfacet
  facet normal 0 -1 -0
    outer loop
      vertex 58 28 78
      vertex 2 28 2
      vertex 58 28 2
    endloop
  endfacet
  facet normal 0 1 0
    outer loop
      vertex 58 2 78
      vertex 37 2 16
      vertex 2 2 78
    endloop
  endfacet
  facet normal 0 1 -0
    outer loop
      vertex 58 2 2
      vertex 37 2 16
      vertex 58 2 78
    endloop
  endfacet
  facet normal 0 1 0
    outer loop
      vertex 37 2 12
      vertex 58 2 2
      vertex 23 2 12
    endloop
  endfacet
  facet normal 0 1 0
    outer loop
      vertex 37 2 16
      vertex 58 2 2
      vertex 37 2 12
    endloop
  endfacet
  facet normal 0 1 -0
    outer loop
      vertex 23 2 16
      vertex 2 2 78
      vertex 37 2 16
    endloop
  endfacet
  facet normal 0 1 0
    outer loop
      vertex 2 2 2
      vertex 23 2 16
      vertex 23 2 12
    endloop
  endfacet
  facet normal 0 1 0
    outer loop
      vertex 23 2 16
      vertex 2 2 2
      vertex 2 2 78
    endloop
  endfacet
  facet normal 0 1 0
    outer loop
      vertex 2 2 2
      vertex 23 2 12
      vertex 58 2 2
    endloop
  endfacet
  facet normal -1 0 0
    outer loop
      vertex 56 29 2
      vertex 56 30 16
      vertex 56 30 2
    endloop
  endfacet
  facet normal -1 -0 0
    outer loop
      vertex 56 30 16
      vertex 56 29 2
      vertex 56 29 16
    endloop
  endfacet
  facet normal 0 0 -1
    outer loop
      vertex 4 29 16
      vertex 56 30 16
      vertex 56 29 16
    endloop
  endfacet
  facet normal -0 0 -1
    outer loop
      vertex 56 30 16
      vertex 4 29 16
      vertex 4 30 16
    endloop
  endfacet
  facet normal -0 0 1
    outer loop
      vertex 4 30 2
      vertex 56 29 2
      vertex 56 30 2
    endloop
  endfacet
  facet normal 0 0 1
    outer loop
      vertex 56 29 2
      vertex 4 30 2
      vertex 4 29 2
    endloop
  endfacet
  facet normal 1 -0 0
    outer loop
      vertex 4 29 16
      vertex 4 30 2
      vertex 4 30 16
    endloop
  endfacet
  facet normal 1 0 0
    outer loop
      vertex 4 30 2
      vertex 4 29 16
      vertex 4 29 2
    endloop
  endfacet
  facet normal 0 1 -0
    outer loop
      vertex 56 29 2
      vertex 4 29 16
      vertex 56 29 16
    endloop
  endfacet
  facet normal 0 1 0
    outer loop
      vertex 4 29 16
      vertex 56 29 2
      vertex 4 29 2
    endloop
  endfacet
  facet normal 0 0 1
    outer loop
      vertex 0.723157 17.8557 77.5
      vertex 2 19.456 77.5
      vertex 1.93631 19.4143 77.5
    endloop
  endfacet
  facet normal 0 0 1
    outer loop
      vertex 2 19.456 77.5
      vertex 0.723157 17.8557 77.5
      vertex 2 10.544 77.5
    endloop
  endfacet
  facet normal -0 0 1
    outer loop
      vertex 0.723157 12.1443 77.5
      vertex 2 10.544 77.5
      vertex 0.723157 17.8557 77.5
    endloop
  endfacet
  facet normal 0 0 1
    outer loop
      vertex 2 10.544 77.5
      vertex 0.723157 12.1443 77.5
      vertex 1.93631 10.5857 77.5
    endloop
  endfacet
  facet normal -0 0 1
    outer loop
      vertex 0.0818319 15.9876 77.5
      vertex 0.723157 12.1443 77.5
      vertex 0.723157 17.8557 77.5
    endloop
  endfacet
  facet normal 0 0 1
    outer loop
      vertex 0.723157 12.1443 77.5
      vertex 0.0818319 15.9876 77.5
      vertex 0.0818319 14.0124 77.5
    endloop
  endfacet
  facet normal -0.879468 -0.475959 0
    outer loop
      vertex 11.6749 16.9482 78
      vertex 10.7348 18.6853 80
      vertex 10.7348 18.6853 78
    endloop
  endfacet
  facet normal -0.879468 -0.475959 0
    outer loop
      vertex 10.7348 18.6853 80
      vertex 11.6749 16.9482 78
      vertex 11.6749 16.9482 80
    endloop
  endfacet
  facet normal -0.986361 -0.164596 0
    outer loop
      vertex 12 15 78
      vertex 11.6749 16.9482 80
      vertex 11.6749 16.9482 78
    endloop
  endfacet
  facet normal -0.986361 -0.164596 0
    outer loop
      vertex 11.6749 16.9482 80
      vertex 12 15 78
      vertex 12 15 80
    endloop
  endfacet
  facet normal -0.677287 -0.735719 0
    outer loop
      vertex 9.28169 20.023 78
      vertex 10.7348 18.6853 80
      vertex 9.28169 20.023 80
    endloop
  endfacet
  facet normal -0.677287 -0.735719 -0
    outer loop
      vertex 10.7348 18.6853 80
      vertex 9.28169 20.023 78
      vertex 10.7348 18.6853 78
    endloop
  endfacet
  facet normal 0.945816 -0.324702 0
    outer loop
      vertex 0.0818319 15.9876 80
      vertex 0.723157 17.8557 77.5
      vertex 0.723157 17.8557 80
    endloop
  endfacet
  facet normal 0.945816 -0.324702 0
    outer loop
      vertex 0.723157 17.8557 77.5
      vertex 0.0818319 15.9876 80
      vertex 0.0818319 15.9876 77.5
    endloop
  endfacet
  facet normal -0.401694 0.915774 0
    outer loop
      vertex 9.28169 9.977 78
      vertex 7.47291 9.1836 80
      vertex 9.28169 9.977 80
    endloop
  endfacet
  facet normal -0.401694 0.915774 0
    outer loop
      vertex 7.47291 9.1836 80
      vertex 9.28169 9.977 78
      vertex 7.47291 9.1836 78
    endloop
  endfacet
  facet normal 0.245488 0.9694 -0
    outer loop
      vertex 5.50452 9.02049 78
      vertex 3.58983 9.50536 80
      vertex 5.50452 9.02049 80
    endloop
  endfacet
  facet normal 0.245488 0.9694 0
    outer loop
      vertex 3.58983 9.50536 80
      vertex 5.50452 9.02049 78
      vertex 3.58983 9.50536 78
    endloop
  endfacet
  facet normal -0.401694 -0.915774 0
    outer loop
      vertex 7.47291 20.8164 78
      vertex 9.28169 20.023 80
      vertex 7.47291 20.8164 80
    endloop
  endfacet
  facet normal -0.401694 -0.915774 -0
    outer loop
      vertex 9.28169 20.023 80
      vertex 7.47291 20.8164 78
      vertex 9.28169 20.023 78
    endloop
  endfacet
  facet normal -0.0825766 -0.996585 0
    outer loop
      vertex 5.50452 20.9795 78
      vertex 7.47291 20.8164 80
      vertex 5.50452 20.9795 80
    endloop
  endfacet
  facet normal -0.0825766 -0.996585 -0
    outer loop
      vertex 7.47291 20.8164 80
      vertex 5.50452 20.9795 78
      vertex 7.47291 20.8164 78
    endloop
  endfacet
  facet normal 0.546949 -0.837166 -3.73333e-05
    outer loop
      vertex 1.93631 19.4143 80
      vertex 2 19.456 78
      vertex 3.58983 20.4946 80
    endloop
  endfacet
  facet normal 0.54777 -0.836629 0
    outer loop
      vertex 1.93631 19.4143 77.5
      vertex 2 19.456 78
      vertex 1.93631 19.4143 80
    endloop
  endfacet
  facet normal 0.54777 -0.836629 0
    outer loop
      vertex 2 19.456 78
      vertex 1.93631 19.4143 77.5
      vertex 2 19.456 77.5
    endloop
  endfacet
  facet normal 0.546916 -0.837188 0
    outer loop
      vertex 3.58983 20.4946 80
      vertex 2 19.456 78
      vertex 3.58983 20.4946 78
    endloop
  endfacet
  facet normal 0.245502 -0.969396 0
    outer loop
      vertex 3.58983 20.4946 78
      vertex 5.50452 20.9795 80
      vertex 3.58983 20.4946 80
    endloop
  endfacet
  facet normal 0.245502 -0.969396 0
    outer loop
      vertex 5.50452 20.9795 80
      vertex 3.58983 20.4946 78
      vertex 5.50452 20.9795 78
    endloop
  endfacet
  facet normal 0.546931 0.837178 0
    outer loop
      vertex 2 10.544 78
      vertex 3.58983 9.50536 80
      vertex 3.58983 9.50536 78
    endloop
  endfacet
  facet normal 0.546963 0.837157 -3.6688e-05
    outer loop
      vertex 3.58983 9.50536 80
      vertex 2 10.544 78
      vertex 1.93631 10.5857 80
    endloop
  endfacet
  facet normal 0.54777 0.836629 0
    outer loop
      vertex 1.93631 10.5857 77.5
      vertex 2 10.544 78
      vertex 2 10.544 77.5
    endloop
  endfacet
  facet normal 0.54777 0.836629 0
    outer loop
      vertex 2 10.544 78
      vertex 1.93631 10.5857 77.5
      vertex 1.93631 10.5857 80
    endloop
  endfacet
  facet normal 0.789129 0.614227 0
    outer loop
      vertex 1.93631 10.5857 80
      vertex 0.723157 12.1443 77.5
      vertex 0.723157 12.1443 80
    endloop
  endfacet
  facet normal 0.789129 0.614227 0
    outer loop
      vertex 0.723157 12.1443 77.5
      vertex 1.93631 10.5857 80
      vertex 1.93631 10.5857 77.5
    endloop
  endfacet
  facet normal -0.986361 0.164596 0
    outer loop
      vertex 11.6749 13.0518 78
      vertex 12 15 80
      vertex 12 15 78
    endloop
  endfacet
  facet normal -0.986361 0.164596 0
    outer loop
      vertex 12 15 80
      vertex 11.6749 13.0518 78
      vertex 11.6749 13.0518 80
    endloop
  endfacet
  facet normal 0.945816 0.324702 0
    outer loop
      vertex 0.723157 12.1443 80
      vertex 0.0818319 14.0124 77.5
      vertex 0.0818319 14.0124 80
    endloop
  endfacet
  facet normal 0.945816 0.324702 0
    outer loop
      vertex 0.0818319 14.0124 77.5
      vertex 0.723157 12.1443 80
      vertex 0.723157 12.1443 77.5
    endloop
  endfacet
  facet normal -0.0825816 0.996584 0
    outer loop
      vertex 7.47291 9.1836 78
      vertex 5.50452 9.02049 80
      vertex 7.47291 9.1836 80
    endloop
  endfacet
  facet normal -0.0825816 0.996584 0
    outer loop
      vertex 5.50452 9.02049 80
      vertex 7.47291 9.1836 78
      vertex 5.50452 9.02049 78
    endloop
  endfacet
  facet normal 1 -0 0
    outer loop
      vertex 0.0818319 14.0124 80
      vertex 0.0818319 15.9876 77.5
      vertex 0.0818319 15.9876 80
    endloop
  endfacet
  facet normal 1 0 0
    outer loop
      vertex 0.0818319 15.9876 77.5
      vertex 0.0818319 14.0124 80
      vertex 0.0818319 14.0124 77.5
    endloop
  endfacet
  facet normal -0.879468 0.475959 0
    outer loop
      vertex 10.7348 11.3147 78
      vertex 11.6749 13.0518 80
      vertex 11.6749 13.0518 78
    endloop
  endfacet
  facet normal -0.879468 0.475959 0
    outer loop
      vertex 11.6749 13.0518 80
      vertex 10.7348 11.3147 78
      vertex 10.7348 11.3147 80
    endloop
  endfacet
  facet normal -0.677287 0.735719 0
    outer loop
      vertex 10.7348 11.3147 78
      vertex 9.28169 9.977 80
      vertex 10.7348 11.3147 80
    endloop
  endfacet
  facet normal -0.677287 0.735719 0
    outer loop
      vertex 9.28169 9.977 80
      vertex 10.7348 11.3147 78
      vertex 9.28169 9.977 78
    endloop
  endfacet
  facet normal 0.789129 -0.614227 0
    outer loop
      vertex 0.723157 17.8557 80
      vertex 1.93631 19.4143 77.5
      vertex 1.93631 19.4143 80
    endloop
  endfacet
  facet normal 0.789129 -0.614227 0
    outer loop
      vertex 1.93631 19.4143 77.5
      vertex 0.723157 17.8557 80
      vertex 0.723157 17.8557 77.5
    endloop
  endfacet
  facet normal -1 0 0
    outer loop
      vertex 37 0 12
      vertex 37 2 16
      vertex 37 2 12
    endloop
  endfacet
  facet normal -1 -0 0
    outer loop
      vertex 37 2 16
      vertex 37 0 12
      vertex 37 0 16
    endloop
  endfacet
  facet normal 0 0 -1
    outer loop
      vertex 23 0 16
      vertex 37 2 16
      vertex 37 0 16
    endloop
  endfacet
  facet normal -0 0 -1
    outer loop
      vertex 37 2 16
      vertex 23 0 16
      vertex 23 2 16
    endloop
  endfacet
  facet normal -0 0 1
    outer loop
      vertex 23 2 12
      vertex 37 0 12
      vertex 37 2 12
    endloop
  endfacet
  facet normal 0 0 1
    outer loop
      vertex 37 0 12
      vertex 23 2 12
      vertex 23 0 12
    endloop
  endfacet
  facet normal 1 -0 0
    outer loop
      vertex 23 0 16
      vertex 23 2 12
      vertex 23 2 16
    endloop
  endfacet
  facet normal 1 0 0
    outer loop
      vertex 23 2 12
      vertex 23 0 16
      vertex 23 0 12
    endloop
  endfacet
endsolid OpenSCAD_Model
