solid OpenSCAD_Model
  facet normal 0 -1 0
    outer loop
      vertex 39.4221 0 43.5802
      vertex 39.4221 0 40.4198
      vertex 40.2207 0 40.6793
    endloop
  endfacet
  facet normal 0 -1 -0
    outer loop
      vertex 39.4221 0 43.5802
      vertex 21.5 0 40
      vertex 39.4221 0 40.4198
    endloop
  endfacet
  facet normal 0 -1 0
    outer loop
      vertex 21.5 0 40
      vertex 39.4221 0 39.5802
      vertex 39.4221 0 40.4198
    endloop
  endfacet
  facet normal 0 -1 0
    outer loop
      vertex 20.4635 0 38.5734
      vertex 39.4221 0 39.5802
      vertex 21.5 0 40
    endloop
  endfacet
  facet normal 0 -1 0
    outer loop
      vertex 37 0 16
      vertex 39.4221 0 39.5802
      vertex 20.4635 0 38.5734
    endloop
  endfacet
  facet normal 0 -1 0
    outer loop
      vertex 39.4221 0 63.5802
      vertex 39.4221 0 60.4198
      vertex 40.2207 0 60.6793
    endloop
  endfacet
  facet normal 0 -1 0
    outer loop
      vertex 34 0 60
      vertex 39.4221 0 60.4198
      vertex 33.5418 0 61.8589
    endloop
  endfacet
  facet normal 0 -1 0
    outer loop
      vertex 34 0 60
      vertex 39.4221 0 59.5802
      vertex 39.4221 0 60.4198
    endloop
  endfacet
  facet normal 0 -1 0
    outer loop
      vertex 33.5418 0 58.1411
      vertex 39.4221 0 59.5802
      vertex 34 0 60
    endloop
  endfacet
  facet normal 0 -1 -0
    outer loop
      vertex 39.4221 0 59.5802
      vertex 33.5418 0 58.1411
      vertex 39.4221 0 56.4198
    endloop
  endfacet
  facet normal 0 -1 0
    outer loop
      vertex 30.4821 0 63.9708
      vertex 60 0 80
      vertex 0 0 80
    endloop
  endfacet
  facet normal 0 -1 0
    outer loop
      vertex 60 0 80
      vertex 30.4821 0 63.9708
      vertex 40.2207 0 64.6793
    endloop
  endfacet
  facet normal 0 -1 0
    outer loop
      vertex 40.2207 0 64.6793
      vertex 30.4821 0 63.9708
      vertex 39.4221 0 64.4198
    endloop
  endfacet
  facet normal 0 -1 0
    outer loop
      vertex 0 0 80
      vertex 28.5816 0 63.7401
      vertex 30.4821 0 63.9708
    endloop
  endfacet
  facet normal 0 -1 0
    outer loop
      vertex 0 0 80
      vertex 27.006 0 62.6525
      vertex 28.5816 0 63.7401
    endloop
  endfacet
  facet normal 0 -1 0
    outer loop
      vertex 0 0 80
      vertex 26.1162 0 60.9573
      vertex 27.006 0 62.6525
    endloop
  endfacet
  facet normal 0 -1 0
    outer loop
      vertex 0 0 80
      vertex 26.1162 0 59.0427
      vertex 26.1162 0 60.9573
    endloop
  endfacet
  facet normal 0 -1 0
    outer loop
      vertex 18.7865 0 40.8817
      vertex 26.1162 0 59.0427
      vertex 0 0 80
    endloop
  endfacet
  facet normal 0 -1 0
    outer loop
      vertex 32.2723 0 56.7081
      vertex 39.4221 0 52.4198
      vertex 39.4221 0 55.5802
    endloop
  endfacet
  facet normal 0 -1 0
    outer loop
      vertex 39.4221 0 55.5802
      vertex 39.4221 0 52.4198
      vertex 40.2207 0 55.3207
    endloop
  endfacet
  facet normal 0 -1 0
    outer loop
      vertex 20.4635 0 41.4266
      vertex 30.4821 0 56.0292
      vertex 28.5816 0 56.2599
    endloop
  endfacet
  facet normal 0 -1 -0
    outer loop
      vertex 40.2207 0 55.3207
      vertex 39.4221 0 52.4198
      vertex 40.2207 0 52.6793
    endloop
  endfacet
  facet normal 0 -1 0
    outer loop
      vertex 30.4821 0 56.0292
      vertex 39.4221 0 51.5802
      vertex 39.4221 0 52.4198
    endloop
  endfacet
  facet normal 0 -1 0
    outer loop
      vertex 40.7143 0 48
      vertex 40.7143 0 52
      vertex 40.2207 0 48.6793
    endloop
  endfacet
  facet normal 0 -1 0
    outer loop
      vertex 39.4221 0 51.5802
      vertex 40.2207 0 48.6793
      vertex 40.2207 0 51.3207
    endloop
  endfacet
  facet normal 0 -1 0
    outer loop
      vertex 30.4821 0 56.0292
      vertex 39.4221 0 48.4198
      vertex 39.4221 0 51.5802
    endloop
  endfacet
  facet normal 0 -1 0
    outer loop
      vertex 39.4221 0 51.5802
      vertex 39.4221 0 48.4198
      vertex 40.2207 0 48.6793
    endloop
  endfacet
  facet normal 0 -1 0
    outer loop
      vertex 20.4635 0 41.4266
      vertex 28.5816 0 56.2599
      vertex 27.006 0 57.3475
    endloop
  endfacet
  facet normal 0 -1 0
    outer loop
      vertex 30.4821 0 56.0292
      vertex 39.4221 0 47.5802
      vertex 39.4221 0 48.4198
    endloop
  endfacet
  facet normal 0 -1 0
    outer loop
      vertex 39.4221 0 47.5802
      vertex 40.2207 0 44.6793
      vertex 40.2207 0 47.3207
    endloop
  endfacet
  facet normal 0 -1 0
    outer loop
      vertex 21.5 0 40
      vertex 30.4821 0 56.0292
      vertex 20.4635 0 41.4266
    endloop
  endfacet
  facet normal 0 -1 -0
    outer loop
      vertex 26.1162 0 59.0427
      vertex 18.7865 0 40.8817
      vertex 27.006 0 57.3475
    endloop
  endfacet
  facet normal 0 -1 0
    outer loop
      vertex 39.4221 0 47.5802
      vertex 39.4221 0 44.4198
      vertex 40.2207 0 44.6793
    endloop
  endfacet
  facet normal 0 -1 -0
    outer loop
      vertex 30.4821 0 56.0292
      vertex 21.5 0 40
      vertex 39.4221 0 47.5802
    endloop
  endfacet
  facet normal 0 -1 -0
    outer loop
      vertex 39.4221 0 44.4198
      vertex 21.5 0 40
      vertex 39.4221 0 43.5802
    endloop
  endfacet
  facet normal 0 -1 -0
    outer loop
      vertex 39.4221 0 47.5802
      vertex 21.5 0 40
      vertex 39.4221 0 44.4198
    endloop
  endfacet
  facet normal 0 -1 0
    outer loop
      vertex 27.006 0 57.3475
      vertex 18.7865 0 40.8817
      vertex 20.4635 0 41.4266
    endloop
  endfacet
  facet normal 0 -1 0
    outer loop
      vertex 0 0 80
      vertex 18.7865 0 39.1183
      vertex 18.7865 0 40.8817
    endloop
  endfacet
  facet normal 0 -1 0
    outer loop
      vertex 18.7865 0 39.1183
      vertex 23 0 16
      vertex 20.4635 0 38.5734
    endloop
  endfacet
  facet normal 0 -1 0
    outer loop
      vertex 0 0 0
      vertex 18.7865 0 39.1183
      vertex 0 0 80
    endloop
  endfacet
  facet normal 0 -1 -0
    outer loop
      vertex 18.7865 0 39.1183
      vertex 0 0 0
      vertex 23 0 16
    endloop
  endfacet
  facet normal 0 -1 -0
    outer loop
      vertex 23 0 12
      vertex 0 0 0
      vertex 37 0 12
    endloop
  endfacet
  facet normal 0 -1 -0
    outer loop
      vertex 23 0 16
      vertex 0 0 0
      vertex 23 0 12
    endloop
  endfacet
  facet normal 0 -1 0
    outer loop
      vertex 40.7143 0 64
      vertex 60 0 80
      vertex 40.2207 0 64.6793
    endloop
  endfacet
  facet normal 0 -1 0
    outer loop
      vertex 40.7143 0 60
      vertex 40.7143 0 64
      vertex 40.2207 0 63.3207
    endloop
  endfacet
  facet normal 0 -1 0
    outer loop
      vertex 39.4221 0 60.4198
      vertex 39.4221 0 63.5802
      vertex 33.5418 0 61.8589
    endloop
  endfacet
  facet normal 0 -1 0
    outer loop
      vertex 39.4221 0 63.5802
      vertex 40.2207 0 60.6793
      vertex 40.2207 0 63.3207
    endloop
  endfacet
  facet normal 0 -1 0
    outer loop
      vertex 40.7143 0 60
      vertex 40.2207 0 63.3207
      vertex 40.2207 0 60.6793
    endloop
  endfacet
  facet normal 0 -1 0
    outer loop
      vertex 40.7143 0 64
      vertex 40.7143 0 60
      vertex 50 0 52.5
    endloop
  endfacet
  facet normal 0 -1 0
    outer loop
      vertex 40.7143 0 56
      vertex 40.7143 0 60
      vertex 40.2207 0 59.3207
    endloop
  endfacet
  facet normal 0 -1 0
    outer loop
      vertex 39.4221 0 55.5802
      vertex 33.5418 0 58.1411
      vertex 32.2723 0 56.7081
    endloop
  endfacet
  facet normal 0 -1 0
    outer loop
      vertex 39.4221 0 59.5802
      vertex 39.4221 0 56.4198
      vertex 40.2207 0 59.3207
    endloop
  endfacet
  facet normal 0 -1 0
    outer loop
      vertex 40.7143 0 56
      vertex 40.2207 0 59.3207
      vertex 40.2207 0 56.6793
    endloop
  endfacet
  facet normal 0 -1 0
    outer loop
      vertex 40.7143 0 60
      vertex 40.7143 0 56
      vertex 50 0 52.5
    endloop
  endfacet
  facet normal 0 -1 0
    outer loop
      vertex 40.7143 0 52
      vertex 40.7143 0 56
      vertex 40.2207 0 55.3207
    endloop
  endfacet
  facet normal 0 -1 0
    outer loop
      vertex 40.7143 0 52
      vertex 40.2207 0 55.3207
      vertex 40.2207 0 52.6793
    endloop
  endfacet
  facet normal 0 -1 0
    outer loop
      vertex 40.7143 0 64
      vertex 50 0 52.5
      vertex 60 0 80
    endloop
  endfacet
  facet normal 0 -1 0
    outer loop
      vertex 51.7678 0 51.7678
      vertex 60 0 80
      vertex 50 0 52.5
    endloop
  endfacet
  facet normal 0 -1 0
    outer loop
      vertex 52.5 0 50
      vertex 60 0 80
      vertex 51.7678 0 51.7678
    endloop
  endfacet
  facet normal 0 -1 0
    outer loop
      vertex 40.7143 0 48
      vertex 40.7143 0 44
      vertex 48.2322 0 48.2322
    endloop
  endfacet
  facet normal 0 -1 -0
    outer loop
      vertex 48.2322 0 48.2322
      vertex 40.7143 0 44
      vertex 50 0 47.5
    endloop
  endfacet
  facet normal 0 -1 0
    outer loop
      vertex 40.7143 0 40
      vertex 40.7143 0 44
      vertex 40.2207 0 43.3207
    endloop
  endfacet
  facet normal 0 -1 0
    outer loop
      vertex 40.7143 0 44
      vertex 40.7143 0 40
      vertex 50 0 47.5
    endloop
  endfacet
  facet normal 0 -1 0
    outer loop
      vertex 39.4221 0 43.5802
      vertex 40.2207 0 40.6793
      vertex 40.2207 0 43.3207
    endloop
  endfacet
  facet normal 0 -1 0
    outer loop
      vertex 40.7143 0 40
      vertex 40.2207 0 43.3207
      vertex 40.2207 0 40.6793
    endloop
  endfacet
  facet normal 0 -1 -0
    outer loop
      vertex 50 0 47.5
      vertex 40.7143 0 40
      vertex 51.7678 0 48.2322
    endloop
  endfacet
  facet normal 0 -1 0
    outer loop
      vertex 40.2207 0 39.3207
      vertex 51.7678 0 48.2322
      vertex 40.7143 0 40
    endloop
  endfacet
  facet normal 0 -1 0
    outer loop
      vertex 37 0 16
      vertex 20.4635 0 38.5734
      vertex 23 0 16
    endloop
  endfacet
  facet normal 0 -1 -0
    outer loop
      vertex 39.4221 0 39.5802
      vertex 37 0 16
      vertex 40.2207 0 39.3207
    endloop
  endfacet
  facet normal 0 -1 0
    outer loop
      vertex 60 0 0
      vertex 40.2207 0 39.3207
      vertex 37 0 16
    endloop
  endfacet
  facet normal 0 -1 0
    outer loop
      vertex 60 0 0
      vertex 37 0 16
      vertex 37 0 12
    endloop
  endfacet
  facet normal 0 -1 0
    outer loop
      vertex 40.2207 0 39.3207
      vertex 60 0 0
      vertex 51.7678 0 48.2322
    endloop
  endfacet
  facet normal 0 -1 0
    outer loop
      vertex 52.5 0 50
      vertex 60 0 0
      vertex 60 0 80
    endloop
  endfacet
  facet normal 0 -1 0
    outer loop
      vertex 51.7678 0 48.2322
      vertex 60 0 0
      vertex 52.5 0 50
    endloop
  endfacet
  facet normal 0 -1 0
    outer loop
      vertex 60 0 0
      vertex 37 0 12
      vertex 0 0 0
    endloop
  endfacet
  facet normal 0 -1 0
    outer loop
      vertex 32.2723 0 63.2919
      vertex 39.4221 0 64.4198
      vertex 30.4821 0 63.9708
    endloop
  endfacet
  facet normal 0 -1 0
    outer loop
      vertex 33.5418 0 61.8589
      vertex 39.4221 0 64.4198
      vertex 32.2723 0 63.2919
    endloop
  endfacet
  facet normal 0 -1 -0
    outer loop
      vertex 39.4221 0 64.4198
      vertex 33.5418 0 61.8589
      vertex 39.4221 0 63.5802
    endloop
  endfacet
  facet normal 0 -1 0
    outer loop
      vertex 40.7143 0 56
      vertex 40.7143 0 52
      vertex 48.2322 0 51.7678
    endloop
  endfacet
  facet normal 0 -1 0
    outer loop
      vertex 40.7143 0 56
      vertex 48.2322 0 51.7678
      vertex 50 0 52.5
    endloop
  endfacet
  facet normal 0 -1 0
    outer loop
      vertex 40.2207 0 48.6793
      vertex 40.7143 0 52
      vertex 40.2207 0 51.3207
    endloop
  endfacet
  facet normal 0 -1 0
    outer loop
      vertex 40.7143 0 52
      vertex 47.5 0 50
      vertex 48.2322 0 51.7678
    endloop
  endfacet
  facet normal 0 -1 -0
    outer loop
      vertex 40.2207 0 59.3207
      vertex 39.4221 0 56.4198
      vertex 40.2207 0 56.6793
    endloop
  endfacet
  facet normal 0 -1 0
    outer loop
      vertex 39.4221 0 52.4198
      vertex 32.2723 0 56.7081
      vertex 30.4821 0 56.0292
    endloop
  endfacet
  facet normal 0 -1 0
    outer loop
      vertex 33.5418 0 58.1411
      vertex 39.4221 0 55.5802
      vertex 39.4221 0 56.4198
    endloop
  endfacet
  facet normal 0 -1 0
    outer loop
      vertex 40.7143 0 52
      vertex 40.7143 0 48
      vertex 47.5 0 50
    endloop
  endfacet
  facet normal 0 -1 -0
    outer loop
      vertex 47.5 0 50
      vertex 40.7143 0 48
      vertex 48.2322 0 48.2322
    endloop
  endfacet
  facet normal 0 -1 0
    outer loop
      vertex 40.2207 0 44.6793
      vertex 40.7143 0 48
      vertex 40.2207 0 47.3207
    endloop
  endfacet
  facet normal 0 -1 0
    outer loop
      vertex 40.7143 0 44
      vertex 40.7143 0 48
      vertex 40.2207 0 44.6793
    endloop
  endfacet
  facet normal 0 -1 0
    outer loop
      vertex 28.5816 0 63.7401
      vertex 32.2723 0 63.2919
      vertex 30.4821 0 63.9708
    endloop
  endfacet
  facet normal 0 -1 0
    outer loop
      vertex 27.006 0 62.6525
      vertex 32.2723 0 63.2919
      vertex 28.5816 0 63.7401
    endloop
  endfacet
  facet normal 0 -1 0
    outer loop
      vertex 27.006 0 62.6525
      vertex 33.5418 0 61.8589
      vertex 32.2723 0 63.2919
    endloop
  endfacet
  facet normal 0 -1 0
    outer loop
      vertex 26.1162 0 60.9573
      vertex 33.5418 0 61.8589
      vertex 27.006 0 62.6525
    endloop
  endfacet
  facet normal 0 -1 0
    outer loop
      vertex 26.1162 0 60.9573
      vertex 34 0 60
      vertex 33.5418 0 61.8589
    endloop
  endfacet
  facet normal 0 -1 0
    outer loop
      vertex 26.1162 0 59.0427
      vertex 34 0 60
      vertex 26.1162 0 60.9573
    endloop
  endfacet
  facet normal 0 -1 0
    outer loop
      vertex 26.1162 0 59.0427
      vertex 33.5418 0 58.1411
      vertex 34 0 60
    endloop
  endfacet
  facet normal 0 -1 0
    outer loop
      vertex 27.006 0 57.3475
      vertex 33.5418 0 58.1411
      vertex 26.1162 0 59.0427
    endloop
  endfacet
  facet normal 0 -1 0
    outer loop
      vertex 27.006 0 57.3475
      vertex 32.2723 0 56.7081
      vertex 33.5418 0 58.1411
    endloop
  endfacet
  facet normal 0 -1 0
    outer loop
      vertex 28.5816 0 56.2599
      vertex 32.2723 0 56.7081
      vertex 27.006 0 57.3475
    endloop
  endfacet
  facet normal 0 -1 0
    outer loop
      vertex 32.2723 0 56.7081
      vertex 28.5816 0 56.2599
      vertex 30.4821 0 56.0292
    endloop
  endfacet
  facet normal 0 -1 0
    outer loop
      vertex 18.7865 0 40.8817
      vertex 21.5 0 40
      vertex 20.4635 0 41.4266
    endloop
  endfacet
  facet normal 0 -1 0
    outer loop
      vertex 18.7865 0 39.1183
      vertex 21.5 0 40
      vertex 18.7865 0 40.8817
    endloop
  endfacet
  facet normal 0 -1 0
    outer loop
      vertex 21.5 0 40
      vertex 18.7865 0 39.1183
      vertex 20.4635 0 38.5734
    endloop
  endfacet
  facet normal 0 -1 0
    outer loop
      vertex 39.4221 0 56.4198
      vertex 40.7143 0 56
      vertex 40.2207 0 56.6793
    endloop
  endfacet
  facet normal 0 -1 0
    outer loop
      vertex 39.4221 0 55.5802
      vertex 40.7143 0 56
      vertex 39.4221 0 56.4198
    endloop
  endfacet
  facet normal 0 -1 0
    outer loop
      vertex 40.7143 0 56
      vertex 39.4221 0 55.5802
      vertex 40.2207 0 55.3207
    endloop
  endfacet
  facet normal 0 -1 0
    outer loop
      vertex 39.4221 0 40.4198
      vertex 40.7143 0 40
      vertex 40.2207 0 40.6793
    endloop
  endfacet
  facet normal 0 -1 0
    outer loop
      vertex 39.4221 0 39.5802
      vertex 40.7143 0 40
      vertex 39.4221 0 40.4198
    endloop
  endfacet
  facet normal 0 -1 0
    outer loop
      vertex 40.7143 0 40
      vertex 39.4221 0 39.5802
      vertex 40.2207 0 39.3207
    endloop
  endfacet
  facet normal 0 -1 0
    outer loop
      vertex 39.4221 0 48.4198
      vertex 40.7143 0 48
      vertex 40.2207 0 48.6793
    endloop
  endfacet
  facet normal 0 -1 0
    outer loop
      vertex 39.4221 0 47.5802
      vertex 40.7143 0 48
      vertex 39.4221 0 48.4198
    endloop
  endfacet
  facet normal 0 -1 0
    outer loop
      vertex 40.7143 0 48
      vertex 39.4221 0 47.5802
      vertex 40.2207 0 47.3207
    endloop
  endfacet
  facet normal 0 -1 0
    outer loop
      vertex 39.4221 0 60.4198
      vertex 40.7143 0 60
      vertex 40.2207 0 60.6793
    endloop
  endfacet
  facet normal 0 -1 0
    outer loop
      vertex 39.4221 0 59.5802
      vertex 40.7143 0 60
      vertex 39.4221 0 60.4198
    endloop
  endfacet
  facet normal 0 -1 0
    outer loop
      vertex 40.7143 0 60
      vertex 39.4221 0 59.5802
      vertex 40.2207 0 59.3207
    endloop
  endfacet
  facet normal 0 -1 0
    outer loop
      vertex 39.4221 0 64.4198
      vertex 40.7143 0 64
      vertex 40.2207 0 64.6793
    endloop
  endfacet
  facet normal 0 -1 0
    outer loop
      vertex 39.4221 0 63.5802
      vertex 40.7143 0 64
      vertex 39.4221 0 64.4198
    endloop
  endfacet
  facet normal 0 -1 0
    outer loop
      vertex 40.7143 0 64
      vertex 39.4221 0 63.5802
      vertex 40.2207 0 63.3207
    endloop
  endfacet
  facet normal 0 -1 0
    outer loop
      vertex 39.4221 0 44.4198
      vertex 40.7143 0 44
      vertex 40.2207 0 44.6793
    endloop
  endfacet
  facet normal 0 -1 0
    outer loop
      vertex 39.4221 0 43.5802
      vertex 40.7143 0 44
      vertex 39.4221 0 44.4198
    endloop
  endfacet
  facet normal 0 -1 0
    outer loop
      vertex 40.7143 0 44
      vertex 39.4221 0 43.5802
      vertex 40.2207 0 43.3207
    endloop
  endfacet
  facet normal 0 -1 0
    outer loop
      vertex 39.4221 0 52.4198
      vertex 40.7143 0 52
      vertex 40.2207 0 52.6793
    endloop
  endfacet
  facet normal 0 -1 0
    outer loop
      vertex 39.4221 0 51.5802
      vertex 40.7143 0 52
      vertex 39.4221 0 52.4198
    endloop
  endfacet
  facet normal 0 -1 0
    outer loop
      vertex 40.7143 0 52
      vertex 39.4221 0 51.5802
      vertex 40.2207 0 51.3207
    endloop
  endfacet
  facet normal 0 -1 0
    outer loop
      vertex 48.2322 0 51.7678
      vertex 51.7678 0 51.7678
      vertex 50 0 52.5
    endloop
  endfacet
  facet normal 0 -1 0
    outer loop
      vertex 47.5 0 50
      vertex 51.7678 0 51.7678
      vertex 48.2322 0 51.7678
    endloop
  endfacet
  facet normal 0 -1 0
    outer loop
      vertex 47.5 0 50
      vertex 52.5 0 50
      vertex 51.7678 0 51.7678
    endloop
  endfacet
  facet normal 0 -1 0
    outer loop
      vertex 48.2322 0 48.2322
      vertex 52.5 0 50
      vertex 47.5 0 50
    endloop
  endfacet
  facet normal 0 -1 0
    outer loop
      vertex 48.2322 0 48.2322
      vertex 51.7678 0 48.2322
      vertex 52.5 0 50
    endloop
  endfacet
  facet normal -0 -1 0
    outer loop
      vertex 51.7678 0 48.2322
      vertex 48.2322 0 48.2322
      vertex 50 0 47.5
    endloop
  endfacet
  facet normal 1 -0 0
    outer loop
      vertex 60 0 80
      vertex 60 30 0
      vertex 60 30 80
    endloop
  endfacet
  facet normal 1 0 0
    outer loop
      vertex 60 30 0
      vertex 60 0 80
      vertex 60 0 0
    endloop
  endfacet
  facet normal 0 0 1
    outer loop
      vertex 60 30 80
      vertex 10.5 15 80
      vertex 60 0 80
    endloop
  endfacet
  facet normal 0 0 1
    outer loop
      vertex 60 30 80
      vertex 10.111 16.8303 80
      vertex 10.5 15 80
    endloop
  endfacet
  facet normal 0 0 1
    outer loop
      vertex 60 30 80
      vertex 9.01109 18.3442 80
      vertex 10.111 16.8303 80
    endloop
  endfacet
  facet normal -0 0 1
    outer loop
      vertex 0 30 80
      vertex 9.01109 18.3442 80
      vertex 60 30 80
    endloop
  endfacet
  facet normal 0 0 1
    outer loop
      vertex 9.01109 18.3442 80
      vertex 0 30 80
      vertex 7.39058 19.2798 80
    endloop
  endfacet
  facet normal 0 0 1
    outer loop
      vertex 1.59834 15.9356 80
      vertex 0 30 80
      vertex 1.59834 14.0644 80
    endloop
  endfacet
  facet normal 0 0 1
    outer loop
      vertex 2.35942 17.645 80
      vertex 0 30 80
      vertex 1.59834 15.9356 80
    endloop
  endfacet
  facet normal 0 0 1
    outer loop
      vertex 3.75 18.8971 80
      vertex 0 30 80
      vertex 2.35942 17.645 80
    endloop
  endfacet
  facet normal 0 0 1
    outer loop
      vertex 5.52962 19.4753 80
      vertex 0 30 80
      vertex 3.75 18.8971 80
    endloop
  endfacet
  facet normal 0 0 1
    outer loop
      vertex 7.39058 19.2798 80
      vertex 0 30 80
      vertex 5.52962 19.4753 80
    endloop
  endfacet
  facet normal -0 0 1
    outer loop
      vertex 10.111 13.1697 80
      vertex 60 0 80
      vertex 10.5 15 80
    endloop
  endfacet
  facet normal -0 0 1
    outer loop
      vertex 9.01109 11.6558 80
      vertex 60 0 80
      vertex 10.111 13.1697 80
    endloop
  endfacet
  facet normal 0 0 1
    outer loop
      vertex 0 0 80
      vertex 9.01109 11.6558 80
      vertex 7.39058 10.7202 80
    endloop
  endfacet
  facet normal 0 0 1
    outer loop
      vertex 0 0 80
      vertex 7.39058 10.7202 80
      vertex 5.52962 10.5247 80
    endloop
  endfacet
  facet normal 0 0 1
    outer loop
      vertex 9.01109 11.6558 80
      vertex 0 0 80
      vertex 60 0 80
    endloop
  endfacet
  facet normal 0 0 1
    outer loop
      vertex 3.75 11.1029 80
      vertex 0 0 80
      vertex 5.52962 10.5247 80
    endloop
  endfacet
  facet normal 0 0 1
    outer loop
      vertex 2.35942 12.355 80
      vertex 0 0 80
      vertex 3.75 11.1029 80
    endloop
  endfacet
  facet normal 0 0 1
    outer loop
      vertex 1.59834 14.0644 80
      vertex 0 0 80
      vertex 2.35942 12.355 80
    endloop
  endfacet
  facet normal 0 0 1
    outer loop
      vertex 0 0 80
      vertex 1.59834 14.0644 80
      vertex 0 30 80
    endloop
  endfacet
  facet normal 0 0 -1
    outer loop
      vertex 0 0 0
      vertex 60 30 0
      vertex 60 0 0
    endloop
  endfacet
  facet normal -0 0 -1
    outer loop
      vertex 60 30 0
      vertex 0 0 0
      vertex 0 30 0
    endloop
  endfacet
  facet normal -1 0 0
    outer loop
      vertex 0 0 0
      vertex 0 30 80
      vertex 0 30 0
    endloop
  endfacet
  facet normal -1 -0 0
    outer loop
      vertex 0 30 80
      vertex 0 0 0
      vertex 0 0 80
    endloop
  endfacet
  facet normal 0 1 0
    outer loop
      vertex 60 30 80
      vertex 56 30 16
      vertex 0 30 80
    endloop
  endfacet
  facet normal 0 1 -0
    outer loop
      vertex 60 30 0
      vertex 56 30 16
      vertex 60 30 80
    endloop
  endfacet
  facet normal 0 1 0
    outer loop
      vertex 56 30 2
      vertex 60 30 0
      vertex 4 30 2
    endloop
  endfacet
  facet normal 0 1 0
    outer loop
      vertex 56 30 16
      vertex 60 30 0
      vertex 56 30 2
    endloop
  endfacet
  facet normal 0 1 -0
    outer loop
      vertex 4 30 16
      vertex 0 30 80
      vertex 56 30 16
    endloop
  endfacet
  facet normal 0 1 0
    outer loop
      vertex 0 30 0
      vertex 4 30 16
      vertex 4 30 2
    endloop
  endfacet
  facet normal 0 1 0
    outer loop
      vertex 4 30 16
      vertex 0 30 0
      vertex 0 30 80
    endloop
  endfacet
  facet normal 0 1 0
    outer loop
      vertex 0 30 0
      vertex 4 30 2
      vertex 60 30 0
    endloop
  endfacet
  facet normal -1 0 0
    outer loop
      vertex 58 2 2
      vertex 58 28 78
      vertex 58 28 2
    endloop
  endfacet
  facet normal -1 -0 0
    outer loop
      vertex 58 28 78
      vertex 58 2 2
      vertex 58 2 78
    endloop
  endfacet
  facet normal 0 0 -1
    outer loop
      vertex 58 2 78
      vertex 10.5 15 78
      vertex 58 28 78
    endloop
  endfacet
  facet normal 0 0 -1
    outer loop
      vertex 58 2 78
      vertex 10.111 13.1697 78
      vertex 10.5 15 78
    endloop
  endfacet
  facet normal 0 0 -1
    outer loop
      vertex 58 2 78
      vertex 9.01109 11.6558 78
      vertex 10.111 13.1697 78
    endloop
  endfacet
  facet normal 0 0 -1
    outer loop
      vertex 2 2 78
      vertex 9.01109 11.6558 78
      vertex 58 2 78
    endloop
  endfacet
  facet normal 0 0 -1
    outer loop
      vertex 9.01109 11.6558 78
      vertex 2 2 78
      vertex 7.39058 10.7202 78
    endloop
  endfacet
  facet normal 0 0 -1
    outer loop
      vertex 7.39058 10.7202 78
      vertex 2 2 78
      vertex 5.52962 10.5247 78
    endloop
  endfacet
  facet normal 0 0 -1
    outer loop
      vertex 2 2 78
      vertex 3.75 11.1029 78
      vertex 5.52962 10.5247 78
    endloop
  endfacet
  facet normal 0 0 -1
    outer loop
      vertex 2 2 78
      vertex 2.35942 12.355 78
      vertex 3.75 11.1029 78
    endloop
  endfacet
  facet normal -0 0 -1
    outer loop
      vertex 2.35942 12.355 78
      vertex 2 2 78
      vertex 2 13.1622 78
    endloop
  endfacet
  facet normal 0 0 -1
    outer loop
      vertex 10.111 16.8303 78
      vertex 58 28 78
      vertex 10.5 15 78
    endloop
  endfacet
  facet normal 0 0 -1
    outer loop
      vertex 9.01109 18.3442 78
      vertex 58 28 78
      vertex 10.111 16.8303 78
    endloop
  endfacet
  facet normal 0 0 -1
    outer loop
      vertex 2 28 78
      vertex 9.01109 18.3442 78
      vertex 7.39058 19.2798 78
    endloop
  endfacet
  facet normal 0 0 -1
    outer loop
      vertex 2 28 78
      vertex 7.39058 19.2798 78
      vertex 5.52962 19.4753 78
    endloop
  endfacet
  facet normal 0 0 -1
    outer loop
      vertex 9.01109 18.3442 78
      vertex 2 28 78
      vertex 58 28 78
    endloop
  endfacet
  facet normal 0 0 -1
    outer loop
      vertex 3.75 18.8971 78
      vertex 2 28 78
      vertex 5.52962 19.4753 78
    endloop
  endfacet
  facet normal 0 0 -1
    outer loop
      vertex 2.35942 17.645 78
      vertex 2 28 78
      vertex 3.75 18.8971 78
    endloop
  endfacet
  facet normal 0 0 -1
    outer loop
      vertex 2 28 78
      vertex 2.35942 17.645 78
      vertex 2 16.8378 78
    endloop
  endfacet
  facet normal -0 0 1
    outer loop
      vertex 2 28 2
      vertex 58 2 2
      vertex 58 28 2
    endloop
  endfacet
  facet normal 0 0 1
    outer loop
      vertex 58 2 2
      vertex 2 28 2
      vertex 2 2 2
    endloop
  endfacet
  facet normal 1 0 0
    outer loop
      vertex 2 13.1622 78
      vertex 2 2 78
      vertex 2 13.1622 77.5
    endloop
  endfacet
  facet normal 1 0 0
    outer loop
      vertex 2 16.8378 77.5
      vertex 2 28 78
      vertex 2 16.8378 78
    endloop
  endfacet
  facet normal 1 0 0
    outer loop
      vertex 2 28 78
      vertex 2 16.8378 77.5
      vertex 2 28 2
    endloop
  endfacet
  facet normal 1 -0 0
    outer loop
      vertex 2 13.1622 77.5
      vertex 2 28 2
      vertex 2 16.8378 77.5
    endloop
  endfacet
  facet normal 1 0 0
    outer loop
      vertex 2 2 2
      vertex 2 13.1622 77.5
      vertex 2 2 78
    endloop
  endfacet
  facet normal 1 0 0
    outer loop
      vertex 2 13.1622 77.5
      vertex 2 2 2
      vertex 2 28 2
    endloop
  endfacet
  facet normal 0 -1 0
    outer loop
      vertex 2 28 2
      vertex 58 28 78
      vertex 2 28 78
    endloop
  endfacet
  facet normal 0 -1 -0
    outer loop
      vertex 58 28 78
      vertex 2 28 2
      vertex 58 28 2
    endloop
  endfacet
  facet normal 0 1 0
    outer loop
      vertex 58 2 78
      vertex 37 2 16
      vertex 2 2 78
    endloop
  endfacet
  facet normal 0 1 -0
    outer loop
      vertex 58 2 2
      vertex 37 2 16
      vertex 58 2 78
    endloop
  endfacet
  facet normal 0 1 0
    outer loop
      vertex 37 2 12
      vertex 58 2 2
      vertex 23 2 12
    endloop
  endfacet
  facet normal 0 1 0
    outer loop
      vertex 37 2 16
      vertex 58 2 2
      vertex 37 2 12
    endloop
  endfacet
  facet normal 0 1 -0
    outer loop
      vertex 23 2 16
      vertex 2 2 78
      vertex 37 2 16
    endloop
  endfacet
  facet normal 0 1 0
    outer loop
      vertex 2 2 2
      vertex 23 2 16
      vertex 23 2 12
    endloop
  endfacet
  facet normal 0 1 0
    outer loop
      vertex 23 2 16
      vertex 2 2 2
      vertex 2 2 78
    endloop
  endfacet
  facet normal 0 1 0
    outer loop
      vertex 2 2 2
      vertex 23 2 12
      vertex 58 2 2
    endloop
  endfacet
  facet normal -1 0 0
    outer loop
      vertex 56 29 2
      vertex 56 30 16
      vertex 56 30 2
    endloop
  endfacet
  facet normal -1 -0 0
    outer loop
      vertex 56 30 16
      vertex 56 29 2
      vertex 56 29 16
    endloop
  endfacet
  facet normal 0 0 -1
    outer loop
      vertex 4 29 16
      vertex 56 30 16
      vertex 56 29 16
    endloop
  endfacet
  facet normal -0 0 -1
    outer loop
      vertex 56 30 16
      vertex 4 29 16
      vertex 4 30 16
    endloop
  endfacet
  facet normal -0 0 1
    outer loop
      vertex 4 30 2
      vertex 56 29 2
      vertex 56 30 2
    endloop
  endfacet
  facet normal 0 0 1
    outer loop
      vertex 56 29 2
      vertex 4 30 2
      vertex 4 29 2
    endloop
  endfacet
  facet normal 1 -0 0
    outer loop
      vertex 4 29 16
      vertex 4 30 2
      vertex 4 30 16
    endloop
  endfacet
  facet normal 1 0 0
    outer loop
      vertex 4 30 2
      vertex 4 29 16
      vertex 4 29 2
    endloop
  endfacet
  facet normal 0 1 -0
    outer loop
      vertex 56 29 2
      vertex 4 29 16
      vertex 56 29 16
    endloop
  endfacet
  facet normal 0 1 0
    outer loop
      vertex 4 29 16
      vertex 56 29 2
      vertex 4 29 2
    endloop
  endfacet
  facet normal 1 -0 0
    outer loop
      vertex 1.59834 14.0644 80
      vertex 1.59834 15.9356 77.5
      vertex 1.59834 15.9356 80
    endloop
  endfacet
  facet normal 1 0 0
    outer loop
      vertex 1.59834 15.9356 77.5
      vertex 1.59834 14.0644 80
      vertex 1.59834 14.0644 77.5
    endloop
  endfacet
  facet normal 0.913555 0.406715 0
    outer loop
      vertex 1.59834 14.0644 80
      vertex 2 13.1622 78
      vertex 1.59834 14.0644 77.5
    endloop
  endfacet
  facet normal 0.913544 0.406739 -1.30325e-05
    outer loop
      vertex 2.35942 12.355 80
      vertex 2 13.1622 78
      vertex 1.59834 14.0644 80
    endloop
  endfacet
  facet normal 0.913532 0.406766 0
    outer loop
      vertex 2 13.1622 78
      vertex 2.35942 12.355 80
      vertex 2.35942 12.355 78
    endloop
  endfacet
  facet normal 0.913555 0.406715 0
    outer loop
      vertex 1.59834 14.0644 77.5
      vertex 2 13.1622 78
      vertex 2 13.1622 77.5
    endloop
  endfacet
  facet normal -0.809018 -0.587784 0
    outer loop
      vertex 10.111 16.8303 78
      vertex 9.01109 18.3442 80
      vertex 9.01109 18.3442 78
    endloop
  endfacet
  facet normal -0.809018 -0.587784 0
    outer loop
      vertex 9.01109 18.3442 80
      vertex 10.111 16.8303 78
      vertex 10.111 16.8303 80
    endloop
  endfacet
  facet normal -0.978152 -0.20789 0
    outer loop
      vertex 10.5 15 78
      vertex 10.111 16.8303 80
      vertex 10.111 16.8303 78
    endloop
  endfacet
  facet normal -0.978152 -0.20789 0
    outer loop
      vertex 10.111 16.8303 80
      vertex 10.5 15 78
      vertex 10.5 15 80
    endloop
  endfacet
  facet normal 0.913532 -0.406766 0
    outer loop
      vertex 2.35942 17.645 80
      vertex 2 16.8378 78
      vertex 2.35942 17.645 78
    endloop
  endfacet
  facet normal 0.913544 -0.406739 -1.30325e-05
    outer loop
      vertex 1.59834 15.9356 80
      vertex 2 16.8378 78
      vertex 2.35942 17.645 80
    endloop
  endfacet
  facet normal 0.913555 -0.406715 0
    outer loop
      vertex 1.59834 15.9356 77.5
      vertex 2 16.8378 78
      vertex 1.59834 15.9356 80
    endloop
  endfacet
  facet normal 0.913555 -0.406715 0
    outer loop
      vertex 2 16.8378 78
      vertex 1.59834 15.9356 77.5
      vertex 2 16.8378 77.5
    endloop
  endfacet
  facet normal -0 0 1
    outer loop
      vertex 1.59834 15.9356 77.5
      vertex 2 13.1622 77.5
      vertex 2 16.8378 77.5
    endloop
  endfacet
  facet normal 0 0 1
    outer loop
      vertex 2 13.1622 77.5
      vertex 1.59834 15.9356 77.5
      vertex 1.59834 14.0644 77.5
    endloop
  endfacet
  facet normal 0.669135 0.743141 -0
    outer loop
      vertex 3.75 11.1029 78
      vertex 2.35942 12.355 80
      vertex 3.75 11.1029 80
    endloop
  endfacet
  facet normal 0.669135 0.743141 0
    outer loop
      vertex 2.35942 12.355 80
      vertex 3.75 11.1029 78
      vertex 2.35942 12.355 78
    endloop
  endfacet
  facet normal -0.104478 0.994527 0
    outer loop
      vertex 7.39058 10.7202 78
      vertex 5.52962 10.5247 80
      vertex 7.39058 10.7202 80
    endloop
  endfacet
  facet normal -0.104478 0.994527 0
    outer loop
      vertex 5.52962 10.5247 80
      vertex 7.39058 10.7202 78
      vertex 5.52962 10.5247 78
    endloop
  endfacet
  facet normal -0.499999 -0.866026 0
    outer loop
      vertex 7.39058 19.2798 78
      vertex 9.01109 18.3442 80
      vertex 7.39058 19.2798 80
    endloop
  endfacet
  facet normal -0.499999 -0.866026 -0
    outer loop
      vertex 9.01109 18.3442 80
      vertex 7.39058 19.2798 78
      vertex 9.01109 18.3442 78
    endloop
  endfacet
  facet normal -0.499999 0.866026 0
    outer loop
      vertex 9.01109 11.6558 78
      vertex 7.39058 10.7202 80
      vertex 9.01109 11.6558 80
    endloop
  endfacet
  facet normal -0.499999 0.866026 0
    outer loop
      vertex 7.39058 10.7202 80
      vertex 9.01109 11.6558 78
      vertex 7.39058 10.7202 78
    endloop
  endfacet
  facet normal 0.309001 0.951062 -0
    outer loop
      vertex 5.52962 10.5247 78
      vertex 3.75 11.1029 80
      vertex 5.52962 10.5247 80
    endloop
  endfacet
  facet normal 0.309001 0.951062 0
    outer loop
      vertex 3.75 11.1029 80
      vertex 5.52962 10.5247 78
      vertex 3.75 11.1029 78
    endloop
  endfacet
  facet normal -0.978152 0.20789 0
    outer loop
      vertex 10.111 13.1697 78
      vertex 10.5 15 80
      vertex 10.5 15 78
    endloop
  endfacet
  facet normal -0.978152 0.20789 0
    outer loop
      vertex 10.5 15 80
      vertex 10.111 13.1697 78
      vertex 10.111 13.1697 80
    endloop
  endfacet
  facet normal -0.809018 0.587784 0
    outer loop
      vertex 9.01109 11.6558 78
      vertex 10.111 13.1697 80
      vertex 10.111 13.1697 78
    endloop
  endfacet
  facet normal -0.809018 0.587784 0
    outer loop
      vertex 10.111 13.1697 80
      vertex 9.01109 11.6558 78
      vertex 9.01109 11.6558 80
    endloop
  endfacet
  facet normal 0.669135 -0.743141 0
    outer loop
      vertex 2.35942 17.645 78
      vertex 3.75 18.8971 80
      vertex 2.35942 17.645 80
    endloop
  endfacet
  facet normal 0.669135 -0.743141 0
    outer loop
      vertex 3.75 18.8971 80
      vertex 2.35942 17.645 78
      vertex 3.75 18.8971 78
    endloop
  endfacet
  facet normal 0.309001 -0.951062 0
    outer loop
      vertex 3.75 18.8971 78
      vertex 5.52962 19.4753 80
      vertex 3.75 18.8971 80
    endloop
  endfacet
  facet normal 0.309001 -0.951062 0
    outer loop
      vertex 5.52962 19.4753 80
      vertex 3.75 18.8971 78
      vertex 5.52962 19.4753 78
    endloop
  endfacet
  facet normal -0.104478 -0.994527 0
    outer loop
      vertex 5.52962 19.4753 78
      vertex 7.39058 19.2798 80
      vertex 5.52962 19.4753 80
    endloop
  endfacet
  facet normal -0.104478 -0.994527 -0
    outer loop
      vertex 7.39058 19.2798 80
      vertex 5.52962 19.4753 78
      vertex 7.39058 19.2798 78
    endloop
  endfacet
  facet normal -1 0 0
    outer loop
      vertex 37 0 12
      vertex 37 2 16
      vertex 37 2 12
    endloop
  endfacet
  facet normal -1 -0 0
    outer loop
      vertex 37 2 16
      vertex 37 0 12
      vertex 37 0 16
    endloop
  endfacet
  facet normal 0 0 -1
    outer loop
      vertex 23 0 16
      vertex 37 2 16
      vertex 37 0 16
    endloop
  endfacet
  facet normal -0 0 -1
    outer loop
      vertex 37 2 16
      vertex 23 0 16
      vertex 23 2 16
    endloop
  endfacet
  facet normal -0 0 1
    outer loop
      vertex 23 2 12
      vertex 37 0 12
      vertex 37 2 12
    endloop
  endfacet
  facet normal 0 0 1
    outer loop
      vertex 37 0 12
      vertex 23 2 12
      vertex 23 0 12
    endloop
  endfacet
  facet normal 1 -0 0
    outer loop
      vertex 23 0 16
      vertex 23 2 12
      vertex 23 2 16
    endloop
  endfacet
  facet normal 1 0 0
    outer loop
      vertex 23 2 12
      vertex 23 0 16
      vertex 23 0 12
    endloop
  endfacet
endsolid OpenSCAD_Model
