solid OpenSCAD_Model
  facet normal 0 -1 0
    outer loop
      vertex 39.4221 0 43.5802
      vertex 39.4221 0 40.4198
      vertex 40.2207 0 40.6793
    endloop
  endfacet
  facet normal 0 -1 -0
    outer loop
      vertex 39.4221 0 43.5802
      vertex 21.5 0 40
      vertex 39.4221 0 40.4198
    endloop
  endfacet
  facet normal 0 -1 0
    outer loop
      vertex 21.5 0 40
      vertex 39.4221 0 39.5802
      vertex 39.4221 0 40.4198
    endloop
  endfacet
  facet normal 0 -1 0
    outer loop
      vertex 20.4635 0 38.5734
      vertex 39.4221 0 39.5802
      vertex 21.5 0 40
    endloop
  endfacet
  facet normal 0 -1 0
    outer loop
      vertex 37 0 16
      vertex 39.4221 0 39.5802
      vertex 20.4635 0 38.5734
    endloop
  endfacet
  facet normal 0 -1 0
    outer loop
      vertex 39.4221 0 63.5802
      vertex 39.4221 0 60.4198
      vertex 40.2207 0 60.6793
    endloop
  endfacet
  facet normal 0 -1 0
    outer loop
      vertex 34 0 60
      vertex 39.4221 0 60.4198
      vertex 33.5418 0 61.8589
    endloop
  endfacet
  facet normal 0 -1 0
    outer loop
      vertex 34 0 60
      vertex 39.4221 0 59.5802
      vertex 39.4221 0 60.4198
    endloop
  endfacet
  facet normal 0 -1 0
    outer loop
      vertex 33.5418 0 58.1411
      vertex 39.4221 0 59.5802
      vertex 34 0 60
    endloop
  endfacet
  facet normal 0 -1 -0
    outer loop
      vertex 39.4221 0 59.5802
      vertex 33.5418 0 58.1411
      vertex 39.4221 0 56.4198
    endloop
  endfacet
  facet normal 0 -1 0
    outer loop
      vertex 7.91342 0 77.6194
      vertex 0 0 80
      vertex 6 0 78
    endloop
  endfacet
  facet normal 0 -1 0
    outer loop
      vertex 0 0 80
      vertex 4.08658 0 77.6194
      vertex 6 0 78
    endloop
  endfacet
  facet normal 0 -1 0
    outer loop
      vertex 0 0 80
      vertex 2.46447 0 76.5355
      vertex 4.08658 0 77.6194
    endloop
  endfacet
  facet normal 0 -1 0
    outer loop
      vertex 0 0 80
      vertex 1.3806 0 74.9134
      vertex 2.46447 0 76.5355
    endloop
  endfacet
  facet normal 0 -1 0
    outer loop
      vertex 0 0 80
      vertex 1 0 73
      vertex 1.3806 0 74.9134
    endloop
  endfacet
  facet normal 0 -1 0
    outer loop
      vertex 10.6194 0 74.9134
      vertex 39.4221 0 64.4198
      vertex 40.2207 0 64.6793
    endloop
  endfacet
  facet normal 0 -1 0
    outer loop
      vertex 7.91342 0 68.3806
      vertex 30.4821 0 63.9708
      vertex 39.4221 0 64.4198
    endloop
  endfacet
  facet normal 0 -1 0
    outer loop
      vertex 7.91342 0 68.3806
      vertex 28.5816 0 63.7401
      vertex 30.4821 0 63.9708
    endloop
  endfacet
  facet normal 0 -1 0
    outer loop
      vertex 7.91342 0 68.3806
      vertex 27.006 0 62.6525
      vertex 28.5816 0 63.7401
    endloop
  endfacet
  facet normal 0 -1 0
    outer loop
      vertex 18.7865 0 40.8817
      vertex 6 0 68
      vertex 4.08658 0 68.3806
    endloop
  endfacet
  facet normal 0 -1 0
    outer loop
      vertex 7.91342 0 68.3806
      vertex 26.1162 0 60.9573
      vertex 27.006 0 62.6525
    endloop
  endfacet
  facet normal 0 -1 0
    outer loop
      vertex 7.91342 0 68.3806
      vertex 26.1162 0 59.0427
      vertex 26.1162 0 60.9573
    endloop
  endfacet
  facet normal 0 -1 0
    outer loop
      vertex 7.91342 0 68.3806
      vertex 18.7865 0 40.8817
      vertex 26.1162 0 59.0427
    endloop
  endfacet
  facet normal 0 -1 -0
    outer loop
      vertex 26.1162 0 59.0427
      vertex 18.7865 0 40.8817
      vertex 27.006 0 57.3475
    endloop
  endfacet
  facet normal 0 -1 0
    outer loop
      vertex 32.2723 0 56.7081
      vertex 39.4221 0 52.4198
      vertex 39.4221 0 55.5802
    endloop
  endfacet
  facet normal 0 -1 0
    outer loop
      vertex 39.4221 0 55.5802
      vertex 39.4221 0 52.4198
      vertex 40.2207 0 55.3207
    endloop
  endfacet
  facet normal 0 -1 0
    outer loop
      vertex 20.4635 0 41.4266
      vertex 30.4821 0 56.0292
      vertex 28.5816 0 56.2599
    endloop
  endfacet
  facet normal 0 -1 -0
    outer loop
      vertex 40.2207 0 55.3207
      vertex 39.4221 0 52.4198
      vertex 40.2207 0 52.6793
    endloop
  endfacet
  facet normal 0 -1 0
    outer loop
      vertex 30.4821 0 56.0292
      vertex 39.4221 0 51.5802
      vertex 39.4221 0 52.4198
    endloop
  endfacet
  facet normal 0 -1 0
    outer loop
      vertex 40.7143 0 48
      vertex 40.7143 0 52
      vertex 40.2207 0 48.6793
    endloop
  endfacet
  facet normal 0 -1 0
    outer loop
      vertex 39.4221 0 51.5802
      vertex 40.2207 0 48.6793
      vertex 40.2207 0 51.3207
    endloop
  endfacet
  facet normal 0 -1 0
    outer loop
      vertex 30.4821 0 56.0292
      vertex 39.4221 0 48.4198
      vertex 39.4221 0 51.5802
    endloop
  endfacet
  facet normal -0 -1 0
    outer loop
      vertex 20.4635 0 41.4266
      vertex 27.006 0 57.3475
      vertex 18.7865 0 40.8817
    endloop
  endfacet
  facet normal 0 -1 0
    outer loop
      vertex 39.4221 0 51.5802
      vertex 39.4221 0 48.4198
      vertex 40.2207 0 48.6793
    endloop
  endfacet
  facet normal 0 -1 0
    outer loop
      vertex 21.5 0 40
      vertex 30.4821 0 56.0292
      vertex 20.4635 0 41.4266
    endloop
  endfacet
  facet normal 0 -1 0
    outer loop
      vertex 39.4221 0 47.5802
      vertex 40.2207 0 44.6793
      vertex 40.2207 0 47.3207
    endloop
  endfacet
  facet normal 0 -1 0
    outer loop
      vertex 30.4821 0 56.0292
      vertex 39.4221 0 47.5802
      vertex 39.4221 0 48.4198
    endloop
  endfacet
  facet normal 0 -1 0
    outer loop
      vertex 39.4221 0 47.5802
      vertex 39.4221 0 44.4198
      vertex 40.2207 0 44.6793
    endloop
  endfacet
  facet normal 0 -1 0
    outer loop
      vertex 18.7865 0 40.8817
      vertex 4.08658 0 68.3806
      vertex 2.46447 0 69.4645
    endloop
  endfacet
  facet normal 0 -1 -0
    outer loop
      vertex 30.4821 0 56.0292
      vertex 21.5 0 40
      vertex 39.4221 0 47.5802
    endloop
  endfacet
  facet normal 0 -1 -0
    outer loop
      vertex 39.4221 0 44.4198
      vertex 21.5 0 40
      vertex 39.4221 0 43.5802
    endloop
  endfacet
  facet normal 0 -1 -0
    outer loop
      vertex 39.4221 0 47.5802
      vertex 21.5 0 40
      vertex 39.4221 0 44.4198
    endloop
  endfacet
  facet normal 0 -1 0
    outer loop
      vertex 0 0 0
      vertex 2.46447 0 69.4645
      vertex 1.3806 0 71.0866
    endloop
  endfacet
  facet normal 0 -1 -0
    outer loop
      vertex 27.006 0 57.3475
      vertex 20.4635 0 41.4266
      vertex 28.5816 0 56.2599
    endloop
  endfacet
  facet normal 0 -1 0
    outer loop
      vertex 2.46447 0 69.4645
      vertex 18.7865 0 39.1183
      vertex 18.7865 0 40.8817
    endloop
  endfacet
  facet normal 0 -1 0
    outer loop
      vertex 18.7865 0 39.1183
      vertex 23 0 16
      vertex 20.4635 0 38.5734
    endloop
  endfacet
  facet normal 0 -1 -0
    outer loop
      vertex 2.46447 0 69.4645
      vertex 0 0 0
      vertex 18.7865 0 39.1183
    endloop
  endfacet
  facet normal 0 -1 -0
    outer loop
      vertex 18.7865 0 39.1183
      vertex 0 0 0
      vertex 23 0 16
    endloop
  endfacet
  facet normal 0 -1 -0
    outer loop
      vertex 23 0 12
      vertex 0 0 0
      vertex 37 0 12
    endloop
  endfacet
  facet normal 0 -1 -0
    outer loop
      vertex 23 0 16
      vertex 0 0 0
      vertex 23 0 12
    endloop
  endfacet
  facet normal 0 -1 -0
    outer loop
      vertex 1 0 73
      vertex 0 0 0
      vertex 1.3806 0 71.0866
    endloop
  endfacet
  facet normal 0 -1 0
    outer loop
      vertex 0 0 0
      vertex 1 0 73
      vertex 0 0 80
    endloop
  endfacet
  facet normal 0 -1 0
    outer loop
      vertex 0 0 80
      vertex 7.91342 0 77.6194
      vertex 60 0 80
    endloop
  endfacet
  facet normal 0 -1 0
    outer loop
      vertex 9.53553 0 76.5355
      vertex 60 0 80
      vertex 7.91342 0 77.6194
    endloop
  endfacet
  facet normal 0 -1 0
    outer loop
      vertex 40.2207 0 64.6793
      vertex 9.53553 0 76.5355
      vertex 10.6194 0 74.9134
    endloop
  endfacet
  facet normal 0 -1 0
    outer loop
      vertex 39.4221 0 64.4198
      vertex 10.6194 0 74.9134
      vertex 11 0 73
    endloop
  endfacet
  facet normal 0 -1 0
    outer loop
      vertex 39.4221 0 64.4198
      vertex 11 0 73
      vertex 10.6194 0 71.0866
    endloop
  endfacet
  facet normal 0 -1 0
    outer loop
      vertex 39.4221 0 64.4198
      vertex 10.6194 0 71.0866
      vertex 9.53553 0 69.4645
    endloop
  endfacet
  facet normal 0 -1 0
    outer loop
      vertex 39.4221 0 64.4198
      vertex 9.53553 0 69.4645
      vertex 7.91342 0 68.3806
    endloop
  endfacet
  facet normal 0 -1 0
    outer loop
      vertex 18.7865 0 40.8817
      vertex 7.91342 0 68.3806
      vertex 6 0 68
    endloop
  endfacet
  facet normal 0 -1 0
    outer loop
      vertex 9.53553 0 76.5355
      vertex 40.2207 0 64.6793
      vertex 60 0 80
    endloop
  endfacet
  facet normal 0 -1 0
    outer loop
      vertex 40.7143 0 64
      vertex 60 0 80
      vertex 40.2207 0 64.6793
    endloop
  endfacet
  facet normal 0 -1 0
    outer loop
      vertex 40.7143 0 60
      vertex 40.7143 0 64
      vertex 40.2207 0 63.3207
    endloop
  endfacet
  facet normal 0 -1 0
    outer loop
      vertex 39.4221 0 60.4198
      vertex 39.4221 0 63.5802
      vertex 33.5418 0 61.8589
    endloop
  endfacet
  facet normal 0 -1 0
    outer loop
      vertex 39.4221 0 63.5802
      vertex 40.2207 0 60.6793
      vertex 40.2207 0 63.3207
    endloop
  endfacet
  facet normal 0 -1 0
    outer loop
      vertex 40.7143 0 60
      vertex 40.2207 0 63.3207
      vertex 40.2207 0 60.6793
    endloop
  endfacet
  facet normal 0 -1 0
    outer loop
      vertex 40.7143 0 64
      vertex 40.7143 0 60
      vertex 50 0 52.5
    endloop
  endfacet
  facet normal 0 -1 0
    outer loop
      vertex 40.7143 0 56
      vertex 40.7143 0 60
      vertex 40.2207 0 59.3207
    endloop
  endfacet
  facet normal 0 -1 0
    outer loop
      vertex 39.4221 0 55.5802
      vertex 33.5418 0 58.1411
      vertex 32.2723 0 56.7081
    endloop
  endfacet
  facet normal 0 -1 0
    outer loop
      vertex 39.4221 0 59.5802
      vertex 39.4221 0 56.4198
      vertex 40.2207 0 59.3207
    endloop
  endfacet
  facet normal 0 -1 0
    outer loop
      vertex 40.7143 0 56
      vertex 40.2207 0 59.3207
      vertex 40.2207 0 56.6793
    endloop
  endfacet
  facet normal 0 -1 0
    outer loop
      vertex 40.7143 0 60
      vertex 40.7143 0 56
      vertex 50 0 52.5
    endloop
  endfacet
  facet normal 0 -1 0
    outer loop
      vertex 40.7143 0 52
      vertex 40.7143 0 56
      vertex 40.2207 0 55.3207
    endloop
  endfacet
  facet normal 0 -1 0
    outer loop
      vertex 40.7143 0 52
      vertex 40.2207 0 55.3207
      vertex 40.2207 0 52.6793
    endloop
  endfacet
  facet normal 0 -1 0
    outer loop
      vertex 40.7143 0 64
      vertex 50 0 52.5
      vertex 60 0 80
    endloop
  endfacet
  facet normal 0 -1 0
    outer loop
      vertex 51.7678 0 51.7678
      vertex 60 0 80
      vertex 50 0 52.5
    endloop
  endfacet
  facet normal 0 -1 0
    outer loop
      vertex 52.5 0 50
      vertex 60 0 80
      vertex 51.7678 0 51.7678
    endloop
  endfacet
  facet normal 0 -1 0
    outer loop
      vertex 40.7143 0 48
      vertex 40.7143 0 44
      vertex 48.2322 0 48.2322
    endloop
  endfacet
  facet normal 0 -1 -0
    outer loop
      vertex 48.2322 0 48.2322
      vertex 40.7143 0 44
      vertex 50 0 47.5
    endloop
  endfacet
  facet normal 0 -1 0
    outer loop
      vertex 40.7143 0 40
      vertex 40.7143 0 44
      vertex 40.2207 0 43.3207
    endloop
  endfacet
  facet normal 0 -1 0
    outer loop
      vertex 40.7143 0 44
      vertex 40.7143 0 40
      vertex 50 0 47.5
    endloop
  endfacet
  facet normal 0 -1 0
    outer loop
      vertex 39.4221 0 43.5802
      vertex 40.2207 0 40.6793
      vertex 40.2207 0 43.3207
    endloop
  endfacet
  facet normal 0 -1 0
    outer loop
      vertex 40.7143 0 40
      vertex 40.2207 0 43.3207
      vertex 40.2207 0 40.6793
    endloop
  endfacet
  facet normal 0 -1 -0
    outer loop
      vertex 50 0 47.5
      vertex 40.7143 0 40
      vertex 51.7678 0 48.2322
    endloop
  endfacet
  facet normal 0 -1 0
    outer loop
      vertex 40.2207 0 39.3207
      vertex 51.7678 0 48.2322
      vertex 40.7143 0 40
    endloop
  endfacet
  facet normal 0 -1 0
    outer loop
      vertex 37 0 16
      vertex 20.4635 0 38.5734
      vertex 23 0 16
    endloop
  endfacet
  facet normal 0 -1 -0
    outer loop
      vertex 39.4221 0 39.5802
      vertex 37 0 16
      vertex 40.2207 0 39.3207
    endloop
  endfacet
  facet normal 0 -1 0
    outer loop
      vertex 60 0 0
      vertex 40.2207 0 39.3207
      vertex 37 0 16
    endloop
  endfacet
  facet normal 0 -1 0
    outer loop
      vertex 60 0 0
      vertex 37 0 16
      vertex 37 0 12
    endloop
  endfacet
  facet normal 0 -1 0
    outer loop
      vertex 40.2207 0 39.3207
      vertex 60 0 0
      vertex 51.7678 0 48.2322
    endloop
  endfacet
  facet normal 0 -1 0
    outer loop
      vertex 52.5 0 50
      vertex 60 0 0
      vertex 60 0 80
    endloop
  endfacet
  facet normal 0 -1 0
    outer loop
      vertex 51.7678 0 48.2322
      vertex 60 0 0
      vertex 52.5 0 50
    endloop
  endfacet
  facet normal 0 -1 0
    outer loop
      vertex 60 0 0
      vertex 37 0 12
      vertex 0 0 0
    endloop
  endfacet
  facet normal 0 -1 0
    outer loop
      vertex 32.2723 0 63.2919
      vertex 39.4221 0 64.4198
      vertex 30.4821 0 63.9708
    endloop
  endfacet
  facet normal 0 -1 0
    outer loop
      vertex 33.5418 0 61.8589
      vertex 39.4221 0 64.4198
      vertex 32.2723 0 63.2919
    endloop
  endfacet
  facet normal 0 -1 -0
    outer loop
      vertex 39.4221 0 64.4198
      vertex 33.5418 0 61.8589
      vertex 39.4221 0 63.5802
    endloop
  endfacet
  facet normal 0 -1 0
    outer loop
      vertex 40.7143 0 56
      vertex 40.7143 0 52
      vertex 48.2322 0 51.7678
    endloop
  endfacet
  facet normal 0 -1 0
    outer loop
      vertex 40.7143 0 56
      vertex 48.2322 0 51.7678
      vertex 50 0 52.5
    endloop
  endfacet
  facet normal 0 -1 0
    outer loop
      vertex 40.2207 0 48.6793
      vertex 40.7143 0 52
      vertex 40.2207 0 51.3207
    endloop
  endfacet
  facet normal 0 -1 0
    outer loop
      vertex 40.7143 0 52
      vertex 47.5 0 50
      vertex 48.2322 0 51.7678
    endloop
  endfacet
  facet normal 0 -1 -0
    outer loop
      vertex 40.2207 0 59.3207
      vertex 39.4221 0 56.4198
      vertex 40.2207 0 56.6793
    endloop
  endfacet
  facet normal 0 -1 0
    outer loop
      vertex 39.4221 0 52.4198
      vertex 32.2723 0 56.7081
      vertex 30.4821 0 56.0292
    endloop
  endfacet
  facet normal 0 -1 0
    outer loop
      vertex 33.5418 0 58.1411
      vertex 39.4221 0 55.5802
      vertex 39.4221 0 56.4198
    endloop
  endfacet
  facet normal 0 -1 0
    outer loop
      vertex 40.7143 0 52
      vertex 40.7143 0 48
      vertex 47.5 0 50
    endloop
  endfacet
  facet normal 0 -1 -0
    outer loop
      vertex 47.5 0 50
      vertex 40.7143 0 48
      vertex 48.2322 0 48.2322
    endloop
  endfacet
  facet normal 0 -1 0
    outer loop
      vertex 40.2207 0 44.6793
      vertex 40.7143 0 48
      vertex 40.2207 0 47.3207
    endloop
  endfacet
  facet normal 0 -1 0
    outer loop
      vertex 40.7143 0 44
      vertex 40.7143 0 48
      vertex 40.2207 0 44.6793
    endloop
  endfacet
  facet normal 0 -1 0
    outer loop
      vertex 28.5816 0 63.7401
      vertex 32.2723 0 63.2919
      vertex 30.4821 0 63.9708
    endloop
  endfacet
  facet normal 0 -1 0
    outer loop
      vertex 27.006 0 62.6525
      vertex 32.2723 0 63.2919
      vertex 28.5816 0 63.7401
    endloop
  endfacet
  facet normal 0 -1 0
    outer loop
      vertex 27.006 0 62.6525
      vertex 33.5418 0 61.8589
      vertex 32.2723 0 63.2919
    endloop
  endfacet
  facet normal 0 -1 0
    outer loop
      vertex 26.1162 0 60.9573
      vertex 33.5418 0 61.8589
      vertex 27.006 0 62.6525
    endloop
  endfacet
  facet normal 0 -1 0
    outer loop
      vertex 26.1162 0 60.9573
      vertex 34 0 60
      vertex 33.5418 0 61.8589
    endloop
  endfacet
  facet normal 0 -1 0
    outer loop
      vertex 26.1162 0 59.0427
      vertex 34 0 60
      vertex 26.1162 0 60.9573
    endloop
  endfacet
  facet normal 0 -1 0
    outer loop
      vertex 26.1162 0 59.0427
      vertex 33.5418 0 58.1411
      vertex 34 0 60
    endloop
  endfacet
  facet normal 0 -1 0
    outer loop
      vertex 27.006 0 57.3475
      vertex 33.5418 0 58.1411
      vertex 26.1162 0 59.0427
    endloop
  endfacet
  facet normal 0 -1 0
    outer loop
      vertex 27.006 0 57.3475
      vertex 32.2723 0 56.7081
      vertex 33.5418 0 58.1411
    endloop
  endfacet
  facet normal 0 -1 0
    outer loop
      vertex 28.5816 0 56.2599
      vertex 32.2723 0 56.7081
      vertex 27.006 0 57.3475
    endloop
  endfacet
  facet normal 0 -1 0
    outer loop
      vertex 32.2723 0 56.7081
      vertex 28.5816 0 56.2599
      vertex 30.4821 0 56.0292
    endloop
  endfacet
  facet normal 0 -1 0
    outer loop
      vertex 18.7865 0 40.8817
      vertex 21.5 0 40
      vertex 20.4635 0 41.4266
    endloop
  endfacet
  facet normal 0 -1 0
    outer loop
      vertex 18.7865 0 39.1183
      vertex 21.5 0 40
      vertex 18.7865 0 40.8817
    endloop
  endfacet
  facet normal 0 -1 0
    outer loop
      vertex 21.5 0 40
      vertex 18.7865 0 39.1183
      vertex 20.4635 0 38.5734
    endloop
  endfacet
  facet normal 0 -1 0
    outer loop
      vertex 39.4221 0 56.4198
      vertex 40.7143 0 56
      vertex 40.2207 0 56.6793
    endloop
  endfacet
  facet normal 0 -1 0
    outer loop
      vertex 39.4221 0 55.5802
      vertex 40.7143 0 56
      vertex 39.4221 0 56.4198
    endloop
  endfacet
  facet normal 0 -1 0
    outer loop
      vertex 40.7143 0 56
      vertex 39.4221 0 55.5802
      vertex 40.2207 0 55.3207
    endloop
  endfacet
  facet normal 0 -1 0
    outer loop
      vertex 39.4221 0 40.4198
      vertex 40.7143 0 40
      vertex 40.2207 0 40.6793
    endloop
  endfacet
  facet normal 0 -1 0
    outer loop
      vertex 39.4221 0 39.5802
      vertex 40.7143 0 40
      vertex 39.4221 0 40.4198
    endloop
  endfacet
  facet normal 0 -1 0
    outer loop
      vertex 40.7143 0 40
      vertex 39.4221 0 39.5802
      vertex 40.2207 0 39.3207
    endloop
  endfacet
  facet normal 0 -1 0
    outer loop
      vertex 39.4221 0 48.4198
      vertex 40.7143 0 48
      vertex 40.2207 0 48.6793
    endloop
  endfacet
  facet normal 0 -1 0
    outer loop
      vertex 39.4221 0 47.5802
      vertex 40.7143 0 48
      vertex 39.4221 0 48.4198
    endloop
  endfacet
  facet normal 0 -1 0
    outer loop
      vertex 40.7143 0 48
      vertex 39.4221 0 47.5802
      vertex 40.2207 0 47.3207
    endloop
  endfacet
  facet normal 0 -1 0
    outer loop
      vertex 39.4221 0 60.4198
      vertex 40.7143 0 60
      vertex 40.2207 0 60.6793
    endloop
  endfacet
  facet normal 0 -1 0
    outer loop
      vertex 39.4221 0 59.5802
      vertex 40.7143 0 60
      vertex 39.4221 0 60.4198
    endloop
  endfacet
  facet normal 0 -1 0
    outer loop
      vertex 40.7143 0 60
      vertex 39.4221 0 59.5802
      vertex 40.2207 0 59.3207
    endloop
  endfacet
  facet normal 0 -1 0
    outer loop
      vertex 39.4221 0 64.4198
      vertex 40.7143 0 64
      vertex 40.2207 0 64.6793
    endloop
  endfacet
  facet normal 0 -1 0
    outer loop
      vertex 39.4221 0 63.5802
      vertex 40.7143 0 64
      vertex 39.4221 0 64.4198
    endloop
  endfacet
  facet normal 0 -1 0
    outer loop
      vertex 40.7143 0 64
      vertex 39.4221 0 63.5802
      vertex 40.2207 0 63.3207
    endloop
  endfacet
  facet normal 0 -1 0
    outer loop
      vertex 39.4221 0 44.4198
      vertex 40.7143 0 44
      vertex 40.2207 0 44.6793
    endloop
  endfacet
  facet normal 0 -1 0
    outer loop
      vertex 39.4221 0 43.5802
      vertex 40.7143 0 44
      vertex 39.4221 0 44.4198
    endloop
  endfacet
  facet normal 0 -1 0
    outer loop
      vertex 40.7143 0 44
      vertex 39.4221 0 43.5802
      vertex 40.2207 0 43.3207
    endloop
  endfacet
  facet normal 0 -1 0
    outer loop
      vertex 39.4221 0 52.4198
      vertex 40.7143 0 52
      vertex 40.2207 0 52.6793
    endloop
  endfacet
  facet normal 0 -1 0
    outer loop
      vertex 39.4221 0 51.5802
      vertex 40.7143 0 52
      vertex 39.4221 0 52.4198
    endloop
  endfacet
  facet normal 0 -1 0
    outer loop
      vertex 40.7143 0 52
      vertex 39.4221 0 51.5802
      vertex 40.2207 0 51.3207
    endloop
  endfacet
  facet normal 0 -1 0
    outer loop
      vertex 48.2322 0 51.7678
      vertex 51.7678 0 51.7678
      vertex 50 0 52.5
    endloop
  endfacet
  facet normal 0 -1 0
    outer loop
      vertex 47.5 0 50
      vertex 51.7678 0 51.7678
      vertex 48.2322 0 51.7678
    endloop
  endfacet
  facet normal 0 -1 0
    outer loop
      vertex 47.5 0 50
      vertex 52.5 0 50
      vertex 51.7678 0 51.7678
    endloop
  endfacet
  facet normal 0 -1 0
    outer loop
      vertex 48.2322 0 48.2322
      vertex 52.5 0 50
      vertex 47.5 0 50
    endloop
  endfacet
  facet normal 0 -1 0
    outer loop
      vertex 48.2322 0 48.2322
      vertex 51.7678 0 48.2322
      vertex 52.5 0 50
    endloop
  endfacet
  facet normal -0 -1 0
    outer loop
      vertex 51.7678 0 48.2322
      vertex 48.2322 0 48.2322
      vertex 50 0 47.5
    endloop
  endfacet
  facet normal 1 -0 0
    outer loop
      vertex 60 0 80
      vertex 60 30 0
      vertex 60 30 80
    endloop
  endfacet
  facet normal 1 0 0
    outer loop
      vertex 60 30 0
      vertex 60 0 80
      vertex 60 0 0
    endloop
  endfacet
  facet normal -0 0 1
    outer loop
      vertex 0 30 80
      vertex 60 0 80
      vertex 60 30 80
    endloop
  endfacet
  facet normal 0 0 1
    outer loop
      vertex 60 0 80
      vertex 0 30 80
      vertex 0 0 80
    endloop
  endfacet
  facet normal 0 0 -1
    outer loop
      vertex 0 0 0
      vertex 60 30 0
      vertex 60 0 0
    endloop
  endfacet
  facet normal -0 0 -1
    outer loop
      vertex 60 30 0
      vertex 0 0 0
      vertex 0 30 0
    endloop
  endfacet
  facet normal -1 0 0
    outer loop
      vertex 0 0 0
      vertex 0 30 80
      vertex 0 30 0
    endloop
  endfacet
  facet normal -1 -0 0
    outer loop
      vertex 0 30 80
      vertex 0 0 0
      vertex 0 0 80
    endloop
  endfacet
  facet normal 0 1 -0
    outer loop
      vertex 7.91342 30 77.6194
      vertex 0 30 80
      vertex 60 30 80
    endloop
  endfacet
  facet normal 0 1 0
    outer loop
      vertex 0 30 80
      vertex 7.91342 30 77.6194
      vertex 6 30 78
    endloop
  endfacet
  facet normal 0 1 0
    outer loop
      vertex 60 30 80
      vertex 9.53553 30 76.5355
      vertex 7.91342 30 77.6194
    endloop
  endfacet
  facet normal 0 1 0
    outer loop
      vertex 60 30 80
      vertex 10.6194 30 74.9134
      vertex 9.53553 30 76.5355
    endloop
  endfacet
  facet normal 0 1 0
    outer loop
      vertex 60 30 80
      vertex 11 30 73
      vertex 10.6194 30 74.9134
    endloop
  endfacet
  facet normal 0 1 0
    outer loop
      vertex 60 30 80
      vertex 10.6194 30 71.0866
      vertex 11 30 73
    endloop
  endfacet
  facet normal 0 1 0
    outer loop
      vertex 60 30 80
      vertex 9.53553 30 69.4645
      vertex 10.6194 30 71.0866
    endloop
  endfacet
  facet normal 0 1 -0
    outer loop
      vertex 56 30 16
      vertex 9.53553 30 69.4645
      vertex 60 30 80
    endloop
  endfacet
  facet normal 0 1 0
    outer loop
      vertex 9.53553 30 69.4645
      vertex 4 30 16
      vertex 7.91342 30 68.3806
    endloop
  endfacet
  facet normal 0 1 0
    outer loop
      vertex 4 30 16
      vertex 9.53553 30 69.4645
      vertex 56 30 16
    endloop
  endfacet
  facet normal 0 1 -0
    outer loop
      vertex 60 30 0
      vertex 56 30 16
      vertex 60 30 80
    endloop
  endfacet
  facet normal 0 1 0
    outer loop
      vertex 56 30 2
      vertex 60 30 0
      vertex 4 30 2
    endloop
  endfacet
  facet normal 0 1 0
    outer loop
      vertex 56 30 16
      vertex 60 30 0
      vertex 56 30 2
    endloop
  endfacet
  facet normal 0 1 -0
    outer loop
      vertex 4.08658 30 77.6194
      vertex 0 30 80
      vertex 6 30 78
    endloop
  endfacet
  facet normal 0 1 -0
    outer loop
      vertex 2.46447 30 76.5355
      vertex 0 30 80
      vertex 4.08658 30 77.6194
    endloop
  endfacet
  facet normal 0 1 -0
    outer loop
      vertex 1.3806 30 74.9134
      vertex 0 30 80
      vertex 2.46447 30 76.5355
    endloop
  endfacet
  facet normal 0 1 -0
    outer loop
      vertex 1 30 73
      vertex 0 30 80
      vertex 1.3806 30 74.9134
    endloop
  endfacet
  facet normal 0 1 0
    outer loop
      vertex 7.91342 30 68.3806
      vertex 4 30 16
      vertex 6 30 68
    endloop
  endfacet
  facet normal 0 1 0
    outer loop
      vertex 6 30 68
      vertex 4 30 16
      vertex 4.08658 30 68.3806
    endloop
  endfacet
  facet normal 0 1 0
    outer loop
      vertex 4.08658 30 68.3806
      vertex 4 30 16
      vertex 2.46447 30 69.4645
    endloop
  endfacet
  facet normal 0 1 0
    outer loop
      vertex 4 30 16
      vertex 1.3806 30 71.0866
      vertex 2.46447 30 69.4645
    endloop
  endfacet
  facet normal 0 1 0
    outer loop
      vertex 0 30 0
      vertex 1.3806 30 71.0866
      vertex 4 30 16
    endloop
  endfacet
  facet normal 0 1 0
    outer loop
      vertex 1.3806 30 71.0866
      vertex 0 30 0
      vertex 1 30 73
    endloop
  endfacet
  facet normal 0 1 0
    outer loop
      vertex 0 30 0
      vertex 4 30 16
      vertex 4 30 2
    endloop
  endfacet
  facet normal 0 1 0
    outer loop
      vertex 1 30 73
      vertex 0 30 0
      vertex 0 30 80
    endloop
  endfacet
  facet normal 0 1 0
    outer loop
      vertex 0 30 0
      vertex 4 30 2
      vertex 60 30 0
    endloop
  endfacet
  facet normal -1 0 0
    outer loop
      vertex 58 2 2
      vertex 58 28 78
      vertex 58 28 2
    endloop
  endfacet
  facet normal -1 -0 0
    outer loop
      vertex 58 28 78
      vertex 58 2 2
      vertex 58 2 78
    endloop
  endfacet
  facet normal 0 0 -1
    outer loop
      vertex 6 2 78
      vertex 58 28 78
      vertex 58 2 78
    endloop
  endfacet
  facet normal 0 0 -1
    outer loop
      vertex 6 2 78
      vertex 6 28 78
      vertex 58 28 78
    endloop
  endfacet
  facet normal 0 0 -1
    outer loop
      vertex 2 2 78
      vertex 6 28 78
      vertex 6 2 78
    endloop
  endfacet
  facet normal -0 0 -1
    outer loop
      vertex 6 28 78
      vertex 2 2 78
      vertex 2 28 78
    endloop
  endfacet
  facet normal -0 0 1
    outer loop
      vertex 2 28 2
      vertex 58 2 2
      vertex 58 28 2
    endloop
  endfacet
  facet normal 0 0 1
    outer loop
      vertex 58 2 2
      vertex 2 28 2
      vertex 2 2 2
    endloop
  endfacet
  facet normal 1 -0 0
    outer loop
      vertex 2 2 78
      vertex 2 28 75.8404
      vertex 2 28 78
    endloop
  endfacet
  facet normal 1 0 0
    outer loop
      vertex 2 28 75.8404
      vertex 2 2 78
      vertex 2 2 75.8404
    endloop
  endfacet
  facet normal 1 -0 0
    outer loop
      vertex 2 2 70.1596
      vertex 2 28 2
      vertex 2 28 70.1596
    endloop
  endfacet
  facet normal 1 0 0
    outer loop
      vertex 2 28 2
      vertex 2 2 70.1596
      vertex 2 2 2
    endloop
  endfacet
  facet normal 0 -1 0
    outer loop
      vertex 2 28 78
      vertex 4.08658 28 77.6194
      vertex 6 28 78
    endloop
  endfacet
  facet normal 0 -1 0
    outer loop
      vertex 2 28 78
      vertex 2.46447 28 76.5355
      vertex 4.08658 28 77.6194
    endloop
  endfacet
  facet normal -0 -1 0
    outer loop
      vertex 2.46447 28 76.5355
      vertex 2 28 78
      vertex 2 28 75.8404
    endloop
  endfacet
  facet normal 0 -1 -0
    outer loop
      vertex 4.08658 28 68.3806
      vertex 2 28 2
      vertex 6 28 68
    endloop
  endfacet
  facet normal 0 -1 -0
    outer loop
      vertex 2.46447 28 69.4645
      vertex 2 28 2
      vertex 4.08658 28 68.3806
    endloop
  endfacet
  facet normal 0 -1 0
    outer loop
      vertex 2 28 2
      vertex 2.46447 28 69.4645
      vertex 2 28 70.1596
    endloop
  endfacet
  facet normal 0 -1 0
    outer loop
      vertex 7.91342 28 77.6194
      vertex 58 28 78
      vertex 6 28 78
    endloop
  endfacet
  facet normal 0 -1 0
    outer loop
      vertex 9.53553 28 76.5355
      vertex 58 28 78
      vertex 7.91342 28 77.6194
    endloop
  endfacet
  facet normal 0 -1 0
    outer loop
      vertex 10.6194 28 74.9134
      vertex 58 28 78
      vertex 9.53553 28 76.5355
    endloop
  endfacet
  facet normal 0 -1 0
    outer loop
      vertex 11 28 73
      vertex 58 28 78
      vertex 10.6194 28 74.9134
    endloop
  endfacet
  facet normal 0 -1 0
    outer loop
      vertex 10.6194 28 71.0866
      vertex 58 28 78
      vertex 11 28 73
    endloop
  endfacet
  facet normal 0 -1 0
    outer loop
      vertex 9.53553 28 69.4645
      vertex 58 28 78
      vertex 10.6194 28 71.0866
    endloop
  endfacet
  facet normal 0 -1 0
    outer loop
      vertex 58 28 2
      vertex 9.53553 28 69.4645
      vertex 7.91342 28 68.3806
    endloop
  endfacet
  facet normal 0 -1 0
    outer loop
      vertex 2 28 2
      vertex 7.91342 28 68.3806
      vertex 6 28 68
    endloop
  endfacet
  facet normal 0 -1 -0
    outer loop
      vertex 7.91342 28 68.3806
      vertex 2 28 2
      vertex 58 28 2
    endloop
  endfacet
  facet normal 0 -1 0
    outer loop
      vertex 9.53553 28 69.4645
      vertex 58 28 2
      vertex 58 28 78
    endloop
  endfacet
  facet normal 0 1 -0
    outer loop
      vertex 4.08658 2 77.6194
      vertex 2 2 78
      vertex 6 2 78
    endloop
  endfacet
  facet normal 0 1 -0
    outer loop
      vertex 2.46447 2 76.5355
      vertex 2 2 78
      vertex 4.08658 2 77.6194
    endloop
  endfacet
  facet normal 0 1 0
    outer loop
      vertex 2 2 78
      vertex 2.46447 2 76.5355
      vertex 2 2 75.8404
    endloop
  endfacet
  facet normal 0 1 0
    outer loop
      vertex 58 2 78
      vertex 7.91342 2 77.6194
      vertex 6 2 78
    endloop
  endfacet
  facet normal 0 1 0
    outer loop
      vertex 58 2 78
      vertex 9.53553 2 76.5355
      vertex 7.91342 2 77.6194
    endloop
  endfacet
  facet normal 0 1 0
    outer loop
      vertex 58 2 78
      vertex 10.6194 2 74.9134
      vertex 9.53553 2 76.5355
    endloop
  endfacet
  facet normal 0 1 0
    outer loop
      vertex 58 2 78
      vertex 11 2 73
      vertex 10.6194 2 74.9134
    endloop
  endfacet
  facet normal 0 1 0
    outer loop
      vertex 58 2 78
      vertex 10.6194 2 71.0866
      vertex 11 2 73
    endloop
  endfacet
  facet normal 0 1 0
    outer loop
      vertex 58 2 78
      vertex 9.53553 2 69.4645
      vertex 10.6194 2 71.0866
    endloop
  endfacet
  facet normal 0 1 -0
    outer loop
      vertex 37 2 16
      vertex 9.53553 2 69.4645
      vertex 58 2 78
    endloop
  endfacet
  facet normal 0 1 -0
    outer loop
      vertex 23 2 16
      vertex 9.53553 2 69.4645
      vertex 37 2 16
    endloop
  endfacet
  facet normal 0 1 0
    outer loop
      vertex 9.53553 2 69.4645
      vertex 23 2 16
      vertex 7.91342 2 68.3806
    endloop
  endfacet
  facet normal 0 1 -0
    outer loop
      vertex 58 2 2
      vertex 37 2 16
      vertex 58 2 78
    endloop
  endfacet
  facet normal 0 1 0
    outer loop
      vertex 37 2 12
      vertex 58 2 2
      vertex 23 2 12
    endloop
  endfacet
  facet normal 0 1 0
    outer loop
      vertex 37 2 16
      vertex 58 2 2
      vertex 37 2 12
    endloop
  endfacet
  facet normal 0 1 0
    outer loop
      vertex 7.91342 2 68.3806
      vertex 23 2 16
      vertex 6 2 68
    endloop
  endfacet
  facet normal 0 1 0
    outer loop
      vertex 6 2 68
      vertex 23 2 16
      vertex 4.08658 2 68.3806
    endloop
  endfacet
  facet normal 0 1 0
    outer loop
      vertex 2 2 2
      vertex 4.08658 2 68.3806
      vertex 23 2 16
    endloop
  endfacet
  facet normal 0 1 0
    outer loop
      vertex 4.08658 2 68.3806
      vertex 2 2 2
      vertex 2.46447 2 69.4645
    endloop
  endfacet
  facet normal 0 1 0
    outer loop
      vertex 2 2 2
      vertex 23 2 16
      vertex 23 2 12
    endloop
  endfacet
  facet normal 0 1 0
    outer loop
      vertex 2.46447 2 69.4645
      vertex 2 2 2
      vertex 2 2 70.1596
    endloop
  endfacet
  facet normal 0 1 0
    outer loop
      vertex 2 2 2
      vertex 23 2 12
      vertex 58 2 2
    endloop
  endfacet
  facet normal -1 0 0
    outer loop
      vertex 56 29 2
      vertex 56 30 16
      vertex 56 30 2
    endloop
  endfacet
  facet normal -1 -0 0
    outer loop
      vertex 56 30 16
      vertex 56 29 2
      vertex 56 29 16
    endloop
  endfacet
  facet normal 0 0 -1
    outer loop
      vertex 4 29 16
      vertex 56 30 16
      vertex 56 29 16
    endloop
  endfacet
  facet normal -0 0 -1
    outer loop
      vertex 56 30 16
      vertex 4 29 16
      vertex 4 30 16
    endloop
  endfacet
  facet normal -0 0 1
    outer loop
      vertex 4 30 2
      vertex 56 29 2
      vertex 56 30 2
    endloop
  endfacet
  facet normal 0 0 1
    outer loop
      vertex 56 29 2
      vertex 4 30 2
      vertex 4 29 2
    endloop
  endfacet
  facet normal 1 -0 0
    outer loop
      vertex 4 29 16
      vertex 4 30 2
      vertex 4 30 16
    endloop
  endfacet
  facet normal 1 0 0
    outer loop
      vertex 4 30 2
      vertex 4 29 16
      vertex 4 29 2
    endloop
  endfacet
  facet normal 0 1 -0
    outer loop
      vertex 56 29 2
      vertex 4 29 16
      vertex 56 29 16
    endloop
  endfacet
  facet normal 0 1 0
    outer loop
      vertex 4 29 16
      vertex 56 29 2
      vertex 4 29 2
    endloop
  endfacet
  facet normal 0.980785 -0 0.195091
    outer loop
      vertex 1 0 73
      vertex 1.3806 30 71.0866
      vertex 1 30 73
    endloop
  endfacet
  facet normal 0.980785 0 0.195091
    outer loop
      vertex 1.3806 30 71.0866
      vertex 1 0 73
      vertex 1.3806 0 71.0866
    endloop
  endfacet
  facet normal -0.831465 0 -0.555576
    outer loop
      vertex 10.6194 0 74.9134
      vertex 9.53553 2 76.5355
      vertex 10.6194 2 74.9134
    endloop
  endfacet
  facet normal -0.831465 -0 -0.555576
    outer loop
      vertex 9.53553 2 76.5355
      vertex 10.6194 0 74.9134
      vertex 9.53553 0 76.5355
    endloop
  endfacet
  facet normal -0.831465 0 -0.555576
    outer loop
      vertex 10.6194 28 74.9134
      vertex 9.53553 30 76.5355
      vertex 10.6194 30 74.9134
    endloop
  endfacet
  facet normal -0.831465 -0 -0.555576
    outer loop
      vertex 9.53553 30 76.5355
      vertex 10.6194 28 74.9134
      vertex 9.53553 28 76.5355
    endloop
  endfacet
  facet normal -0.980785 0 -0.195091
    outer loop
      vertex 11 0 73
      vertex 10.6194 2 74.9134
      vertex 11 2 73
    endloop
  endfacet
  facet normal -0.980785 -0 -0.195091
    outer loop
      vertex 10.6194 2 74.9134
      vertex 11 0 73
      vertex 10.6194 0 74.9134
    endloop
  endfacet
  facet normal -0.980785 0 -0.195091
    outer loop
      vertex 11 28 73
      vertex 10.6194 30 74.9134
      vertex 11 30 73
    endloop
  endfacet
  facet normal -0.980785 -0 -0.195091
    outer loop
      vertex 10.6194 30 74.9134
      vertex 11 28 73
      vertex 10.6194 28 74.9134
    endloop
  endfacet
  facet normal -0.555585 0 -0.83146
    outer loop
      vertex 7.91342 0 77.6194
      vertex 9.53553 2 76.5355
      vertex 9.53553 0 76.5355
    endloop
  endfacet
  facet normal -0.555585 0 -0.83146
    outer loop
      vertex 9.53553 2 76.5355
      vertex 7.91342 0 77.6194
      vertex 7.91342 2 77.6194
    endloop
  endfacet
  facet normal -0.555585 0 -0.83146
    outer loop
      vertex 7.91342 28 77.6194
      vertex 9.53553 30 76.5355
      vertex 9.53553 28 76.5355
    endloop
  endfacet
  facet normal -0.555585 0 -0.83146
    outer loop
      vertex 9.53553 30 76.5355
      vertex 7.91342 28 77.6194
      vertex 7.91342 30 77.6194
    endloop
  endfacet
  facet normal -0.831465 0 0.555576
    outer loop
      vertex 9.53553 0 69.4645
      vertex 10.6194 2 71.0866
      vertex 9.53553 2 69.4645
    endloop
  endfacet
  facet normal -0.831465 0 0.555576
    outer loop
      vertex 10.6194 2 71.0866
      vertex 9.53553 0 69.4645
      vertex 10.6194 0 71.0866
    endloop
  endfacet
  facet normal -0.831465 0 0.555576
    outer loop
      vertex 9.53553 28 69.4645
      vertex 10.6194 30 71.0866
      vertex 9.53553 30 69.4645
    endloop
  endfacet
  facet normal -0.831465 0 0.555576
    outer loop
      vertex 10.6194 30 71.0866
      vertex 9.53553 28 69.4645
      vertex 10.6194 28 71.0866
    endloop
  endfacet
  facet normal 0.195089 0 -0.980786
    outer loop
      vertex 4.08658 28 77.6194
      vertex 6 30 78
      vertex 6 28 78
    endloop
  endfacet
  facet normal 0.195089 0 -0.980786
    outer loop
      vertex 6 30 78
      vertex 4.08658 28 77.6194
      vertex 4.08658 30 77.6194
    endloop
  endfacet
  facet normal 0.195089 0 -0.980786
    outer loop
      vertex 4.08658 0 77.6194
      vertex 6 2 78
      vertex 6 0 78
    endloop
  endfacet
  facet normal 0.195089 0 -0.980786
    outer loop
      vertex 6 2 78
      vertex 4.08658 0 77.6194
      vertex 4.08658 2 77.6194
    endloop
  endfacet
  facet normal -0.195089 0 0.980786
    outer loop
      vertex 6 2 68
      vertex 7.91342 0 68.3806
      vertex 7.91342 2 68.3806
    endloop
  endfacet
  facet normal -0.195089 0 0.980786
    outer loop
      vertex 7.91342 0 68.3806
      vertex 6 2 68
      vertex 6 0 68
    endloop
  endfacet
  facet normal -0.195089 0 0.980786
    outer loop
      vertex 6 30 68
      vertex 7.91342 28 68.3806
      vertex 7.91342 30 68.3806
    endloop
  endfacet
  facet normal -0.195089 0 0.980786
    outer loop
      vertex 7.91342 28 68.3806
      vertex 6 30 68
      vertex 6 28 68
    endloop
  endfacet
  facet normal 0.831459 0 -0.555586
    outer loop
      vertex 2.46447 2 76.5355
      vertex 2.46447 0 76.5355
      vertex 2 2 75.8404
    endloop
  endfacet
  facet normal 0.831459 0 -0.555586
    outer loop
      vertex 2 28 75.8404
      vertex 2.46447 30 76.5355
      vertex 2.46447 28 76.5355
    endloop
  endfacet
  facet normal 0.831465 -4.80549e-06 -0.555576
    outer loop
      vertex 2.46447 30 76.5355
      vertex 2 28 75.8404
      vertex 1.3806 30 74.9134
    endloop
  endfacet
  facet normal 0.83147 0 -0.555569
    outer loop
      vertex 2 2 75.8404
      vertex 1.3806 30 74.9134
      vertex 2 28 75.8404
    endloop
  endfacet
  facet normal 0.83147 0 -0.555569
    outer loop
      vertex 2 2 75.8404
      vertex 1.3806 0 74.9134
      vertex 1.3806 30 74.9134
    endloop
  endfacet
  facet normal 0.831465 4.80549e-06 -0.555576
    outer loop
      vertex 1.3806 0 74.9134
      vertex 2 2 75.8404
      vertex 2.46447 0 76.5355
    endloop
  endfacet
  facet normal 0.980785 0 -0.195091
    outer loop
      vertex 1.3806 0 74.9134
      vertex 1 30 73
      vertex 1.3806 30 74.9134
    endloop
  endfacet
  facet normal 0.980785 0 -0.195091
    outer loop
      vertex 1 30 73
      vertex 1.3806 0 74.9134
      vertex 1 0 73
    endloop
  endfacet
  facet normal 0.195089 0 0.980786
    outer loop
      vertex 4.08658 2 68.3806
      vertex 6 0 68
      vertex 6 2 68
    endloop
  endfacet
  facet normal 0.195089 0 0.980786
    outer loop
      vertex 6 0 68
      vertex 4.08658 2 68.3806
      vertex 4.08658 0 68.3806
    endloop
  endfacet
  facet normal 0.195089 0 0.980786
    outer loop
      vertex 4.08658 30 68.3806
      vertex 6 28 68
      vertex 6 30 68
    endloop
  endfacet
  facet normal 0.195089 0 0.980786
    outer loop
      vertex 6 28 68
      vertex 4.08658 30 68.3806
      vertex 4.08658 28 68.3806
    endloop
  endfacet
  facet normal -0.195089 0 -0.980786
    outer loop
      vertex 6 28 78
      vertex 7.91342 30 77.6194
      vertex 7.91342 28 77.6194
    endloop
  endfacet
  facet normal -0.195089 0 -0.980786
    outer loop
      vertex 7.91342 30 77.6194
      vertex 6 28 78
      vertex 6 30 78
    endloop
  endfacet
  facet normal -0.195089 0 -0.980786
    outer loop
      vertex 6 0 78
      vertex 7.91342 2 77.6194
      vertex 7.91342 0 77.6194
    endloop
  endfacet
  facet normal -0.195089 0 -0.980786
    outer loop
      vertex 7.91342 2 77.6194
      vertex 6 0 78
      vertex 6 2 78
    endloop
  endfacet
  facet normal -0.980785 0 0.195091
    outer loop
      vertex 10.6194 0 71.0866
      vertex 11 2 73
      vertex 10.6194 2 71.0866
    endloop
  endfacet
  facet normal -0.980785 0 0.195091
    outer loop
      vertex 11 2 73
      vertex 10.6194 0 71.0866
      vertex 11 0 73
    endloop
  endfacet
  facet normal -0.980785 0 0.195091
    outer loop
      vertex 10.6194 28 71.0866
      vertex 11 30 73
      vertex 10.6194 30 71.0866
    endloop
  endfacet
  facet normal -0.980785 0 0.195091
    outer loop
      vertex 11 30 73
      vertex 10.6194 28 71.0866
      vertex 11 28 73
    endloop
  endfacet
  facet normal -0.555585 0 0.83146
    outer loop
      vertex 7.91342 2 68.3806
      vertex 9.53553 0 69.4645
      vertex 9.53553 2 69.4645
    endloop
  endfacet
  facet normal -0.555585 0 0.83146
    outer loop
      vertex 9.53553 0 69.4645
      vertex 7.91342 2 68.3806
      vertex 7.91342 0 68.3806
    endloop
  endfacet
  facet normal -0.555585 0 0.83146
    outer loop
      vertex 7.91342 30 68.3806
      vertex 9.53553 28 69.4645
      vertex 9.53553 30 69.4645
    endloop
  endfacet
  facet normal -0.555585 0 0.83146
    outer loop
      vertex 9.53553 28 69.4645
      vertex 7.91342 30 68.3806
      vertex 7.91342 28 68.3806
    endloop
  endfacet
  facet normal 0.831465 -4.80549e-06 0.555576
    outer loop
      vertex 1.3806 30 71.0866
      vertex 2 28 70.1596
      vertex 2.46447 30 69.4645
    endloop
  endfacet
  facet normal 0.83147 0 0.555569
    outer loop
      vertex 1.3806 30 71.0866
      vertex 2 2 70.1596
      vertex 2 28 70.1596
    endloop
  endfacet
  facet normal 0.83147 -0 0.555569
    outer loop
      vertex 1.3806 0 71.0866
      vertex 2 2 70.1596
      vertex 1.3806 30 71.0866
    endloop
  endfacet
  facet normal 0.831465 4.80549e-06 0.555576
    outer loop
      vertex 2.46447 0 69.4645
      vertex 2 2 70.1596
      vertex 1.3806 0 71.0866
    endloop
  endfacet
  facet normal 0.831459 0 0.555586
    outer loop
      vertex 2 2 70.1596
      vertex 2.46447 0 69.4645
      vertex 2.46447 2 69.4645
    endloop
  endfacet
  facet normal 0.831459 0 0.555586
    outer loop
      vertex 2.46447 30 69.4645
      vertex 2 28 70.1596
      vertex 2.46447 28 69.4645
    endloop
  endfacet
  facet normal 0.555585 0 -0.83146
    outer loop
      vertex 2.46447 0 76.5355
      vertex 4.08658 2 77.6194
      vertex 4.08658 0 77.6194
    endloop
  endfacet
  facet normal 0.555585 0 -0.83146
    outer loop
      vertex 4.08658 2 77.6194
      vertex 2.46447 0 76.5355
      vertex 2.46447 2 76.5355
    endloop
  endfacet
  facet normal 0.555585 0 -0.83146
    outer loop
      vertex 2.46447 28 76.5355
      vertex 4.08658 30 77.6194
      vertex 4.08658 28 77.6194
    endloop
  endfacet
  facet normal 0.555585 0 -0.83146
    outer loop
      vertex 4.08658 30 77.6194
      vertex 2.46447 28 76.5355
      vertex 2.46447 30 76.5355
    endloop
  endfacet
  facet normal 0.555585 0 0.83146
    outer loop
      vertex 2.46447 2 69.4645
      vertex 4.08658 0 68.3806
      vertex 4.08658 2 68.3806
    endloop
  endfacet
  facet normal 0.555585 0 0.83146
    outer loop
      vertex 4.08658 0 68.3806
      vertex 2.46447 2 69.4645
      vertex 2.46447 0 69.4645
    endloop
  endfacet
  facet normal 0.555585 0 0.83146
    outer loop
      vertex 2.46447 30 69.4645
      vertex 4.08658 28 68.3806
      vertex 4.08658 30 68.3806
    endloop
  endfacet
  facet normal 0.555585 0 0.83146
    outer loop
      vertex 4.08658 28 68.3806
      vertex 2.46447 30 69.4645
      vertex 2.46447 28 69.4645
    endloop
  endfacet
  facet normal -1 0 0
    outer loop
      vertex 37 0 12
      vertex 37 2 16
      vertex 37 2 12
    endloop
  endfacet
  facet normal -1 -0 0
    outer loop
      vertex 37 2 16
      vertex 37 0 12
      vertex 37 0 16
    endloop
  endfacet
  facet normal 0 0 -1
    outer loop
      vertex 23 0 16
      vertex 37 2 16
      vertex 37 0 16
    endloop
  endfacet
  facet normal -0 0 -1
    outer loop
      vertex 37 2 16
      vertex 23 0 16
      vertex 23 2 16
    endloop
  endfacet
  facet normal -0 0 1
    outer loop
      vertex 23 2 12
      vertex 37 0 12
      vertex 37 2 12
    endloop
  endfacet
  facet normal 0 0 1
    outer loop
      vertex 37 0 12
      vertex 23 2 12
      vertex 23 0 12
    endloop
  endfacet
  facet normal 1 -0 0
    outer loop
      vertex 23 0 16
      vertex 23 2 12
      vertex 23 2 16
    endloop
  endfacet
  facet normal 1 0 0
    outer loop
      vertex 23 2 12
      vertex 23 0 16
      vertex 23 0 12
    endloop
  endfacet
endsolid OpenSCAD_Model
