solid OpenSCAD_Model
  facet normal 0 -1 0
    outer loop
      vertex 39.4221 0 43.5802
      vertex 39.4221 0 40.4198
      vertex 40.2207 0 40.6793
    endloop
  endfacet
  facet normal 0 -1 -0
    outer loop
      vertex 39.4221 0 43.5802
      vertex 21.5 0 40
      vertex 39.4221 0 40.4198
    endloop
  endfacet
  facet normal 0 -1 0
    outer loop
      vertex 21.5 0 40
      vertex 39.4221 0 39.5802
      vertex 39.4221 0 40.4198
    endloop
  endfacet
  facet normal 0 -1 0
    outer loop
      vertex 20.4635 0 38.5734
      vertex 39.4221 0 39.5802
      vertex 21.5 0 40
    endloop
  endfacet
  facet normal 0 -1 -0
    outer loop
      vertex 39.4221 0 39.5802
      vertex 20.4635 0 38.5734
      vertex 40.2207 0 39.3207
    endloop
  endfacet
  facet normal 0 -1 0
    outer loop
      vertex 39.4221 0 59.5802
      vertex 39.4221 0 56.4198
      vertex 40.2207 0 56.6793
    endloop
  endfacet
  facet normal 0 -1 0
    outer loop
      vertex 39.4221 0 51.5802
      vertex 32.2723 0 56.7081
      vertex 30.4821 0 56.0292
    endloop
  endfacet
  facet normal 0 -1 0
    outer loop
      vertex 33.5418 0 58.1411
      vertex 39.4221 0 55.5802
      vertex 39.4221 0 56.4198
    endloop
  endfacet
  facet normal 0 -1 0
    outer loop
      vertex 39.4221 0 63.5802
      vertex 39.4221 0 60.4198
      vertex 40.2207 0 60.6793
    endloop
  endfacet
  facet normal 0 -1 0
    outer loop
      vertex 34 0 60
      vertex 39.4221 0 60.4198
      vertex 33.5418 0 61.8589
    endloop
  endfacet
  facet normal 0 -1 0
    outer loop
      vertex 34 0 60
      vertex 39.4221 0 59.5802
      vertex 39.4221 0 60.4198
    endloop
  endfacet
  facet normal 0 -1 0
    outer loop
      vertex 33.5418 0 58.1411
      vertex 39.4221 0 59.5802
      vertex 34 0 60
    endloop
  endfacet
  facet normal 0 -1 0
    outer loop
      vertex 39.4221 0 56.4198
      vertex 39.4221 0 59.5802
      vertex 33.5418 0 58.1411
    endloop
  endfacet
  facet normal 0 -1 0
    outer loop
      vertex 30.4821 0 63.9708
      vertex 60 0 80
      vertex 0 0 80
    endloop
  endfacet
  facet normal 0 -1 0
    outer loop
      vertex 60 0 80
      vertex 30.4821 0 63.9708
      vertex 40.2207 0 64.6793
    endloop
  endfacet
  facet normal 0 -1 0
    outer loop
      vertex 40.2207 0 64.6793
      vertex 30.4821 0 63.9708
      vertex 39.4221 0 64.4198
    endloop
  endfacet
  facet normal 0 -1 0
    outer loop
      vertex 0 0 80
      vertex 28.5816 0 63.7401
      vertex 30.4821 0 63.9708
    endloop
  endfacet
  facet normal 0 -1 0
    outer loop
      vertex 0 0 80
      vertex 27.006 0 62.6525
      vertex 28.5816 0 63.7401
    endloop
  endfacet
  facet normal 0 -1 0
    outer loop
      vertex 0 0 80
      vertex 26.1162 0 60.9573
      vertex 27.006 0 62.6525
    endloop
  endfacet
  facet normal 0 -1 0
    outer loop
      vertex 0 0 80
      vertex 26.1162 0 59.0427
      vertex 26.1162 0 60.9573
    endloop
  endfacet
  facet normal 0 -1 0
    outer loop
      vertex 18.7865 0 40.8817
      vertex 26.1162 0 59.0427
      vertex 0 0 80
    endloop
  endfacet
  facet normal 0 -1 0
    outer loop
      vertex 32.2723 0 56.7081
      vertex 39.4221 0 52.4198
      vertex 39.4221 0 55.5802
    endloop
  endfacet
  facet normal 0 -1 0
    outer loop
      vertex 39.4221 0 55.5802
      vertex 39.4221 0 52.4198
      vertex 40.2207 0 55.3207
    endloop
  endfacet
  facet normal 0 -1 0
    outer loop
      vertex 20.4635 0 41.4266
      vertex 30.4821 0 56.0292
      vertex 28.5816 0 56.2599
    endloop
  endfacet
  facet normal 0 -1 -0
    outer loop
      vertex 40.2207 0 55.3207
      vertex 39.4221 0 52.4198
      vertex 40.2207 0 52.6793
    endloop
  endfacet
  facet normal 0 -1 0
    outer loop
      vertex 32.2723 0 56.7081
      vertex 39.4221 0 51.5802
      vertex 39.4221 0 52.4198
    endloop
  endfacet
  facet normal 0 -1 0
    outer loop
      vertex 39.4221 0 51.5802
      vertex 40.2207 0 48.6793
      vertex 40.2207 0 51.3207
    endloop
  endfacet
  facet normal 0 -1 0
    outer loop
      vertex 30.4821 0 56.0292
      vertex 39.4221 0 48.4198
      vertex 39.4221 0 51.5802
    endloop
  endfacet
  facet normal 0 -1 0
    outer loop
      vertex 39.4221 0 51.5802
      vertex 39.4221 0 48.4198
      vertex 40.2207 0 48.6793
    endloop
  endfacet
  facet normal 0 -1 0
    outer loop
      vertex 20.4635 0 41.4266
      vertex 28.5816 0 56.2599
      vertex 27.006 0 57.3475
    endloop
  endfacet
  facet normal 0 -1 0
    outer loop
      vertex 30.4821 0 56.0292
      vertex 39.4221 0 47.5802
      vertex 39.4221 0 48.4198
    endloop
  endfacet
  facet normal 0 -1 0
    outer loop
      vertex 39.4221 0 47.5802
      vertex 40.2207 0 44.6793
      vertex 40.2207 0 47.3207
    endloop
  endfacet
  facet normal 0 -1 0
    outer loop
      vertex 21.5 0 40
      vertex 30.4821 0 56.0292
      vertex 20.4635 0 41.4266
    endloop
  endfacet
  facet normal 0 -1 -0
    outer loop
      vertex 26.1162 0 59.0427
      vertex 18.7865 0 40.8817
      vertex 27.006 0 57.3475
    endloop
  endfacet
  facet normal 0 -1 0
    outer loop
      vertex 39.4221 0 47.5802
      vertex 39.4221 0 44.4198
      vertex 40.2207 0 44.6793
    endloop
  endfacet
  facet normal 0 -1 -0
    outer loop
      vertex 30.4821 0 56.0292
      vertex 21.5 0 40
      vertex 39.4221 0 47.5802
    endloop
  endfacet
  facet normal 0 -1 -0
    outer loop
      vertex 39.4221 0 44.4198
      vertex 21.5 0 40
      vertex 39.4221 0 43.5802
    endloop
  endfacet
  facet normal 0 -1 -0
    outer loop
      vertex 39.4221 0 47.5802
      vertex 21.5 0 40
      vertex 39.4221 0 44.4198
    endloop
  endfacet
  facet normal 0 -1 0
    outer loop
      vertex 27.006 0 57.3475
      vertex 18.7865 0 40.8817
      vertex 20.4635 0 41.4266
    endloop
  endfacet
  facet normal 0 -1 0
    outer loop
      vertex 0 0 80
      vertex 18.7865 0 39.1183
      vertex 18.7865 0 40.8817
    endloop
  endfacet
  facet normal 0 -1 -0
    outer loop
      vertex 18.7865 0 39.1183
      vertex 0 0 0
      vertex 20.4635 0 38.5734
    endloop
  endfacet
  facet normal 0 -1 0
    outer loop
      vertex 0 0 0
      vertex 18.7865 0 39.1183
      vertex 0 0 80
    endloop
  endfacet
  facet normal 0 -1 0
    outer loop
      vertex 40.7143 0 64
      vertex 60 0 80
      vertex 40.2207 0 64.6793
    endloop
  endfacet
  facet normal 0 -1 0
    outer loop
      vertex 40.7143 0 60
      vertex 40.7143 0 64
      vertex 40.2207 0 63.3207
    endloop
  endfacet
  facet normal 0 -1 0
    outer loop
      vertex 39.4221 0 60.4198
      vertex 39.4221 0 63.5802
      vertex 33.5418 0 61.8589
    endloop
  endfacet
  facet normal 0 -1 0
    outer loop
      vertex 39.4221 0 63.5802
      vertex 40.2207 0 60.6793
      vertex 40.2207 0 63.3207
    endloop
  endfacet
  facet normal 0 -1 0
    outer loop
      vertex 40.7143 0 60
      vertex 40.2207 0 63.3207
      vertex 40.2207 0 60.6793
    endloop
  endfacet
  facet normal 0 -1 0
    outer loop
      vertex 40.7143 0 64
      vertex 40.7143 0 60
      vertex 60 0 80
    endloop
  endfacet
  facet normal 0 -1 0
    outer loop
      vertex 40.7143 0 56
      vertex 40.7143 0 60
      vertex 40.2207 0 59.3207
    endloop
  endfacet
  facet normal 0 -1 0
    outer loop
      vertex 39.4221 0 55.5802
      vertex 33.5418 0 58.1411
      vertex 32.2723 0 56.7081
    endloop
  endfacet
  facet normal 0 -1 0
    outer loop
      vertex 39.4221 0 59.5802
      vertex 40.2207 0 56.6793
      vertex 40.2207 0 59.3207
    endloop
  endfacet
  facet normal 0 -1 0
    outer loop
      vertex 40.7143 0 56
      vertex 40.2207 0 59.3207
      vertex 40.2207 0 56.6793
    endloop
  endfacet
  facet normal 0 -1 0
    outer loop
      vertex 40.7143 0 60
      vertex 40.7143 0 56
      vertex 60 0 80
    endloop
  endfacet
  facet normal 0 -1 0
    outer loop
      vertex 40.7143 0 52
      vertex 40.7143 0 56
      vertex 40.2207 0 55.3207
    endloop
  endfacet
  facet normal 0 -1 0
    outer loop
      vertex 40.7143 0 52
      vertex 40.2207 0 55.3207
      vertex 40.2207 0 52.6793
    endloop
  endfacet
  facet normal 0 -1 0
    outer loop
      vertex 40.7143 0 56
      vertex 40.7143 0 52
      vertex 60 0 80
    endloop
  endfacet
  facet normal 0 -1 0
    outer loop
      vertex 40.2207 0 48.6793
      vertex 40.7143 0 52
      vertex 40.2207 0 51.3207
    endloop
  endfacet
  facet normal 0 -1 0
    outer loop
      vertex 40.7143 0 48
      vertex 40.7143 0 52
      vertex 40.2207 0 48.6793
    endloop
  endfacet
  facet normal 0 -1 0
    outer loop
      vertex 40.7143 0 52
      vertex 40.7143 0 48
      vertex 60 0 80
    endloop
  endfacet
  facet normal 0 -1 0
    outer loop
      vertex 40.2207 0 44.6793
      vertex 40.7143 0 48
      vertex 40.2207 0 47.3207
    endloop
  endfacet
  facet normal 0 -1 0
    outer loop
      vertex 40.7143 0 44
      vertex 40.7143 0 48
      vertex 40.2207 0 44.6793
    endloop
  endfacet
  facet normal 0 -1 0
    outer loop
      vertex 40.7143 0 48
      vertex 40.7143 0 44
      vertex 60 0 80
    endloop
  endfacet
  facet normal 0 -1 0
    outer loop
      vertex 39.4221 0 43.5802
      vertex 40.2207 0 40.6793
      vertex 40.2207 0 43.3207
    endloop
  endfacet
  facet normal 0 -1 0
    outer loop
      vertex 40.2207 0 40.6793
      vertex 40.7143 0 44
      vertex 40.2207 0 43.3207
    endloop
  endfacet
  facet normal 0 -1 0
    outer loop
      vertex 40.7143 0 40
      vertex 40.7143 0 44
      vertex 40.2207 0 40.6793
    endloop
  endfacet
  facet normal 0 -1 0
    outer loop
      vertex 40.7143 0 44
      vertex 40.7143 0 40
      vertex 60 0 80
    endloop
  endfacet
  facet normal 0 -1 0
    outer loop
      vertex 60 0 0
      vertex 20.4635 0 38.5734
      vertex 0 0 0
    endloop
  endfacet
  facet normal 0 -1 0
    outer loop
      vertex 40.7143 0 40
      vertex 60 0 0
      vertex 60 0 80
    endloop
  endfacet
  facet normal 0 -1 0
    outer loop
      vertex 40.2207 0 39.3207
      vertex 60 0 0
      vertex 40.7143 0 40
    endloop
  endfacet
  facet normal 0 -1 0
    outer loop
      vertex 20.4635 0 38.5734
      vertex 60 0 0
      vertex 40.2207 0 39.3207
    endloop
  endfacet
  facet normal 0 -1 0
    outer loop
      vertex 32.2723 0 63.2919
      vertex 39.4221 0 64.4198
      vertex 30.4821 0 63.9708
    endloop
  endfacet
  facet normal 0 -1 0
    outer loop
      vertex 33.5418 0 61.8589
      vertex 39.4221 0 64.4198
      vertex 32.2723 0 63.2919
    endloop
  endfacet
  facet normal 0 -1 -0
    outer loop
      vertex 39.4221 0 64.4198
      vertex 33.5418 0 61.8589
      vertex 39.4221 0 63.5802
    endloop
  endfacet
  facet normal 0 -1 0
    outer loop
      vertex 28.5816 0 63.7401
      vertex 32.2723 0 63.2919
      vertex 30.4821 0 63.9708
    endloop
  endfacet
  facet normal 0 -1 0
    outer loop
      vertex 27.006 0 62.6525
      vertex 32.2723 0 63.2919
      vertex 28.5816 0 63.7401
    endloop
  endfacet
  facet normal 0 -1 0
    outer loop
      vertex 27.006 0 62.6525
      vertex 33.5418 0 61.8589
      vertex 32.2723 0 63.2919
    endloop
  endfacet
  facet normal 0 -1 0
    outer loop
      vertex 26.1162 0 60.9573
      vertex 33.5418 0 61.8589
      vertex 27.006 0 62.6525
    endloop
  endfacet
  facet normal 0 -1 0
    outer loop
      vertex 26.1162 0 60.9573
      vertex 34 0 60
      vertex 33.5418 0 61.8589
    endloop
  endfacet
  facet normal 0 -1 0
    outer loop
      vertex 26.1162 0 59.0427
      vertex 34 0 60
      vertex 26.1162 0 60.9573
    endloop
  endfacet
  facet normal 0 -1 0
    outer loop
      vertex 26.1162 0 59.0427
      vertex 33.5418 0 58.1411
      vertex 34 0 60
    endloop
  endfacet
  facet normal 0 -1 0
    outer loop
      vertex 27.006 0 57.3475
      vertex 33.5418 0 58.1411
      vertex 26.1162 0 59.0427
    endloop
  endfacet
  facet normal 0 -1 0
    outer loop
      vertex 27.006 0 57.3475
      vertex 32.2723 0 56.7081
      vertex 33.5418 0 58.1411
    endloop
  endfacet
  facet normal 0 -1 0
    outer loop
      vertex 28.5816 0 56.2599
      vertex 32.2723 0 56.7081
      vertex 27.006 0 57.3475
    endloop
  endfacet
  facet normal 0 -1 0
    outer loop
      vertex 32.2723 0 56.7081
      vertex 28.5816 0 56.2599
      vertex 30.4821 0 56.0292
    endloop
  endfacet
  facet normal 0 -1 0
    outer loop
      vertex 18.7865 0 40.8817
      vertex 21.5 0 40
      vertex 20.4635 0 41.4266
    endloop
  endfacet
  facet normal 0 -1 0
    outer loop
      vertex 18.7865 0 39.1183
      vertex 21.5 0 40
      vertex 18.7865 0 40.8817
    endloop
  endfacet
  facet normal 0 -1 0
    outer loop
      vertex 21.5 0 40
      vertex 18.7865 0 39.1183
      vertex 20.4635 0 38.5734
    endloop
  endfacet
  facet normal 0 -1 0
    outer loop
      vertex 39.4221 0 56.4198
      vertex 40.7143 0 56
      vertex 40.2207 0 56.6793
    endloop
  endfacet
  facet normal 0 -1 0
    outer loop
      vertex 39.4221 0 55.5802
      vertex 40.7143 0 56
      vertex 39.4221 0 56.4198
    endloop
  endfacet
  facet normal 0 -1 0
    outer loop
      vertex 40.7143 0 56
      vertex 39.4221 0 55.5802
      vertex 40.2207 0 55.3207
    endloop
  endfacet
  facet normal 0 -1 0
    outer loop
      vertex 39.4221 0 40.4198
      vertex 40.7143 0 40
      vertex 40.2207 0 40.6793
    endloop
  endfacet
  facet normal 0 -1 0
    outer loop
      vertex 39.4221 0 39.5802
      vertex 40.7143 0 40
      vertex 39.4221 0 40.4198
    endloop
  endfacet
  facet normal 0 -1 0
    outer loop
      vertex 40.7143 0 40
      vertex 39.4221 0 39.5802
      vertex 40.2207 0 39.3207
    endloop
  endfacet
  facet normal 0 -1 0
    outer loop
      vertex 39.4221 0 48.4198
      vertex 40.7143 0 48
      vertex 40.2207 0 48.6793
    endloop
  endfacet
  facet normal 0 -1 0
    outer loop
      vertex 39.4221 0 47.5802
      vertex 40.7143 0 48
      vertex 39.4221 0 48.4198
    endloop
  endfacet
  facet normal 0 -1 0
    outer loop
      vertex 40.7143 0 48
      vertex 39.4221 0 47.5802
      vertex 40.2207 0 47.3207
    endloop
  endfacet
  facet normal 0 -1 0
    outer loop
      vertex 39.4221 0 60.4198
      vertex 40.7143 0 60
      vertex 40.2207 0 60.6793
    endloop
  endfacet
  facet normal 0 -1 0
    outer loop
      vertex 39.4221 0 59.5802
      vertex 40.7143 0 60
      vertex 39.4221 0 60.4198
    endloop
  endfacet
  facet normal 0 -1 0
    outer loop
      vertex 40.7143 0 60
      vertex 39.4221 0 59.5802
      vertex 40.2207 0 59.3207
    endloop
  endfacet
  facet normal 0 -1 0
    outer loop
      vertex 39.4221 0 64.4198
      vertex 40.7143 0 64
      vertex 40.2207 0 64.6793
    endloop
  endfacet
  facet normal 0 -1 0
    outer loop
      vertex 39.4221 0 63.5802
      vertex 40.7143 0 64
      vertex 39.4221 0 64.4198
    endloop
  endfacet
  facet normal 0 -1 0
    outer loop
      vertex 40.7143 0 64
      vertex 39.4221 0 63.5802
      vertex 40.2207 0 63.3207
    endloop
  endfacet
  facet normal 0 -1 0
    outer loop
      vertex 39.4221 0 44.4198
      vertex 40.7143 0 44
      vertex 40.2207 0 44.6793
    endloop
  endfacet
  facet normal 0 -1 0
    outer loop
      vertex 39.4221 0 43.5802
      vertex 40.7143 0 44
      vertex 39.4221 0 44.4198
    endloop
  endfacet
  facet normal 0 -1 0
    outer loop
      vertex 40.7143 0 44
      vertex 39.4221 0 43.5802
      vertex 40.2207 0 43.3207
    endloop
  endfacet
  facet normal 0 -1 0
    outer loop
      vertex 39.4221 0 52.4198
      vertex 40.7143 0 52
      vertex 40.2207 0 52.6793
    endloop
  endfacet
  facet normal 0 -1 0
    outer loop
      vertex 39.4221 0 51.5802
      vertex 40.7143 0 52
      vertex 39.4221 0 52.4198
    endloop
  endfacet
  facet normal 0 -1 0
    outer loop
      vertex 40.7143 0 52
      vertex 39.4221 0 51.5802
      vertex 40.2207 0 51.3207
    endloop
  endfacet
  facet normal 1 -0 0
    outer loop
      vertex 60 0 80
      vertex 60 30 0
      vertex 60 30 80
    endloop
  endfacet
  facet normal 1 0 0
    outer loop
      vertex 60 30 0
      vertex 60 0 80
      vertex 60 0 0
    endloop
  endfacet
  facet normal 0 0 1
    outer loop
      vertex 60 30 80
      vertex 8.5 15 80
      vertex 60 0 80
    endloop
  endfacet
  facet normal 0 0 1
    outer loop
      vertex 60 30 80
      vertex 7.76777 16.7678 80
      vertex 8.5 15 80
    endloop
  endfacet
  facet normal -0 0 1
    outer loop
      vertex 0 30 80
      vertex 7.76777 16.7678 80
      vertex 60 30 80
    endloop
  endfacet
  facet normal 0 0 1
    outer loop
      vertex 4.23223 16.7678 80
      vertex 0 30 80
      vertex 3.5 15 80
    endloop
  endfacet
  facet normal 0 0 1
    outer loop
      vertex 6 17.5 80
      vertex 0 30 80
      vertex 4.23223 16.7678 80
    endloop
  endfacet
  facet normal 0 0 1
    outer loop
      vertex 7.76777 16.7678 80
      vertex 0 30 80
      vertex 6 17.5 80
    endloop
  endfacet
  facet normal -0 0 1
    outer loop
      vertex 7.76777 13.2322 80
      vertex 60 0 80
      vertex 8.5 15 80
    endloop
  endfacet
  facet normal 0 0 1
    outer loop
      vertex 0 0 80
      vertex 7.76777 13.2322 80
      vertex 6 12.5 80
    endloop
  endfacet
  facet normal 0 0 1
    outer loop
      vertex 7.76777 13.2322 80
      vertex 0 0 80
      vertex 60 0 80
    endloop
  endfacet
  facet normal 0 0 1
    outer loop
      vertex 4.23223 13.2322 80
      vertex 0 0 80
      vertex 6 12.5 80
    endloop
  endfacet
  facet normal 0 0 1
    outer loop
      vertex 3.5 15 80
      vertex 0 0 80
      vertex 4.23223 13.2322 80
    endloop
  endfacet
  facet normal 0 0 1
    outer loop
      vertex 0 0 80
      vertex 3.5 15 80
      vertex 0 30 80
    endloop
  endfacet
  facet normal 0 0 -1
    outer loop
      vertex 0 0 0
      vertex 60 30 0
      vertex 60 0 0
    endloop
  endfacet
  facet normal -0 0 -1
    outer loop
      vertex 60 30 0
      vertex 0 0 0
      vertex 0 30 0
    endloop
  endfacet
  facet normal -1 0 0
    outer loop
      vertex 0 0 0
      vertex 0 30 80
      vertex 0 30 0
    endloop
  endfacet
  facet normal -1 -0 0
    outer loop
      vertex 0 30 80
      vertex 0 0 0
      vertex 0 0 80
    endloop
  endfacet
  facet normal 0 1 0
    outer loop
      vertex 60 30 80
      vertex 56 30 16
      vertex 0 30 80
    endloop
  endfacet
  facet normal 0 1 -0
    outer loop
      vertex 60 30 0
      vertex 56 30 16
      vertex 60 30 80
    endloop
  endfacet
  facet normal 0 1 0
    outer loop
      vertex 56 30 2
      vertex 60 30 0
      vertex 4 30 2
    endloop
  endfacet
  facet normal 0 1 0
    outer loop
      vertex 56 30 16
      vertex 60 30 0
      vertex 56 30 2
    endloop
  endfacet
  facet normal 0 1 -0
    outer loop
      vertex 4 30 16
      vertex 0 30 80
      vertex 56 30 16
    endloop
  endfacet
  facet normal 0 1 0
    outer loop
      vertex 0 30 0
      vertex 4 30 16
      vertex 4 30 2
    endloop
  endfacet
  facet normal 0 1 0
    outer loop
      vertex 4 30 16
      vertex 0 30 0
      vertex 0 30 80
    endloop
  endfacet
  facet normal 0 1 0
    outer loop
      vertex 0 30 0
      vertex 4 30 2
      vertex 60 30 0
    endloop
  endfacet
  facet normal -1 0 0
    outer loop
      vertex 58 2 2
      vertex 58 28 78
      vertex 58 28 2
    endloop
  endfacet
  facet normal -1 -0 0
    outer loop
      vertex 58 28 78
      vertex 58 2 2
      vertex 58 2 78
    endloop
  endfacet
  facet normal 0 0 -1
    outer loop
      vertex 58 2 78
      vertex 8.5 15 78
      vertex 58 28 78
    endloop
  endfacet
  facet normal 0 0 -1
    outer loop
      vertex 58 2 78
      vertex 7.76777 13.2322 78
      vertex 8.5 15 78
    endloop
  endfacet
  facet normal 0 0 -1
    outer loop
      vertex 2 2 78
      vertex 7.76777 13.2322 78
      vertex 58 2 78
    endloop
  endfacet
  facet normal -0 0 -1
    outer loop
      vertex 4.23223 13.2322 78
      vertex 2 2 78
      vertex 3.5 15 78
    endloop
  endfacet
  facet normal -0 0 -1
    outer loop
      vertex 6 12.5 78
      vertex 2 2 78
      vertex 4.23223 13.2322 78
    endloop
  endfacet
  facet normal 0 0 -1
    outer loop
      vertex 7.76777 13.2322 78
      vertex 2 2 78
      vertex 6 12.5 78
    endloop
  endfacet
  facet normal 0 0 -1
    outer loop
      vertex 7.76777 16.7678 78
      vertex 58 28 78
      vertex 8.5 15 78
    endloop
  endfacet
  facet normal 0 0 -1
    outer loop
      vertex 2 28 78
      vertex 7.76777 16.7678 78
      vertex 6 17.5 78
    endloop
  endfacet
  facet normal 0 0 -1
    outer loop
      vertex 7.76777 16.7678 78
      vertex 2 28 78
      vertex 58 28 78
    endloop
  endfacet
  facet normal 0 0 -1
    outer loop
      vertex 4.23223 16.7678 78
      vertex 2 28 78
      vertex 6 17.5 78
    endloop
  endfacet
  facet normal 0 0 -1
    outer loop
      vertex 3.5 15 78
      vertex 2 28 78
      vertex 4.23223 16.7678 78
    endloop
  endfacet
  facet normal 0 0 -1
    outer loop
      vertex 2 28 78
      vertex 3.5 15 78
      vertex 2 2 78
    endloop
  endfacet
  facet normal -0 0 1
    outer loop
      vertex 2 28 2
      vertex 58 2 2
      vertex 58 28 2
    endloop
  endfacet
  facet normal 0 0 1
    outer loop
      vertex 58 2 2
      vertex 2 28 2
      vertex 2 2 2
    endloop
  endfacet
  facet normal 1 -0 0
    outer loop
      vertex 2 2 78
      vertex 2 28 2
      vertex 2 28 78
    endloop
  endfacet
  facet normal 1 0 0
    outer loop
      vertex 2 28 2
      vertex 2 2 78
      vertex 2 2 2
    endloop
  endfacet
  facet normal 0 -1 0
    outer loop
      vertex 2 28 2
      vertex 58 28 78
      vertex 2 28 78
    endloop
  endfacet
  facet normal 0 -1 -0
    outer loop
      vertex 58 28 78
      vertex 2 28 2
      vertex 58 28 2
    endloop
  endfacet
  facet normal 0 1 -0
    outer loop
      vertex 58 2 2
      vertex 2 2 78
      vertex 58 2 78
    endloop
  endfacet
  facet normal 0 1 0
    outer loop
      vertex 2 2 78
      vertex 58 2 2
      vertex 2 2 2
    endloop
  endfacet
  facet normal -1 0 0
    outer loop
      vertex 56 29 2
      vertex 56 30 16
      vertex 56 30 2
    endloop
  endfacet
  facet normal -1 -0 0
    outer loop
      vertex 56 30 16
      vertex 56 29 2
      vertex 56 29 16
    endloop
  endfacet
  facet normal 0 0 -1
    outer loop
      vertex 4 29 16
      vertex 56 30 16
      vertex 56 29 16
    endloop
  endfacet
  facet normal -0 0 -1
    outer loop
      vertex 56 30 16
      vertex 4 29 16
      vertex 4 30 16
    endloop
  endfacet
  facet normal -0 0 1
    outer loop
      vertex 4 30 2
      vertex 56 29 2
      vertex 56 30 2
    endloop
  endfacet
  facet normal 0 0 1
    outer loop
      vertex 56 29 2
      vertex 4 30 2
      vertex 4 29 2
    endloop
  endfacet
  facet normal 1 -0 0
    outer loop
      vertex 4 29 16
      vertex 4 30 2
      vertex 4 30 16
    endloop
  endfacet
  facet normal 1 0 0
    outer loop
      vertex 4 30 2
      vertex 4 29 16
      vertex 4 29 2
    endloop
  endfacet
  facet normal 0 1 -0
    outer loop
      vertex 56 29 2
      vertex 4 29 16
      vertex 56 29 16
    endloop
  endfacet
  facet normal 0 1 0
    outer loop
      vertex 4 29 16
      vertex 56 29 2
      vertex 4 29 2
    endloop
  endfacet
  facet normal 0.382668 0.923886 -0
    outer loop
      vertex 6 12.5 78
      vertex 4.23223 13.2322 80
      vertex 6 12.5 80
    endloop
  endfacet
  facet normal 0.382668 0.923886 0
    outer loop
      vertex 4.23223 13.2322 80
      vertex 6 12.5 78
      vertex 4.23223 13.2322 78
    endloop
  endfacet
  facet normal -0.382668 -0.923886 0
    outer loop
      vertex 6 17.5 78
      vertex 7.76777 16.7678 80
      vertex 6 17.5 80
    endloop
  endfacet
  facet normal -0.382668 -0.923886 -0
    outer loop
      vertex 7.76777 16.7678 80
      vertex 6 17.5 78
      vertex 7.76777 16.7678 78
    endloop
  endfacet
  facet normal -0.923883 -0.382676 0
    outer loop
      vertex 8.5 15 78
      vertex 7.76777 16.7678 80
      vertex 7.76777 16.7678 78
    endloop
  endfacet
  facet normal -0.923883 -0.382676 0
    outer loop
      vertex 7.76777 16.7678 80
      vertex 8.5 15 78
      vertex 8.5 15 80
    endloop
  endfacet
  facet normal 0.623493 0.781829 -0
  facet normal 0.382668 -0.923886 0
    outer loop
      vertex 4.23223 16.7678 78
      vertex 6 17.5 80
      vertex 4.23223 16.7678 80
    endloop
  endfacet
  facet normal 0.382668 -0.923886 0
    outer loop
      vertex 6 17.5 80
      vertex 4.23223 16.7678 78
      vertex 6 17.5 78
    endloop
  endfacet
  facet normal -0.382668 0.923886 0
    outer loop
      vertex 7.76777 13.2322 78
      vertex 6 12.5 80
      vertex 7.76777 13.2322 80
    endloop
  endfacet
  facet normal -0.382668 0.923886 0
    outer loop
      vertex 6 12.5 80
      vertex 7.76777 13.2322 78
      vertex 6 12.5 78
    endloop
  endfacet
  facet normal -0.923883 0.382676 0
    outer loop
      vertex 7.76777 13.2322 78
      vertex 8.5 15 80
      vertex 8.5 15 78
    endloop
  endfacet
  facet normal -0.923883 0.382676 0
    outer loop
      vertex 8.5 15 80
      vertex 7.76777 13.2322 78
      vertex 7.76777 13.2322 80
    endloop
  endfacet
  facet normal 0.923883 0.382676 0
    outer loop
      vertex 4.23223 13.2322 80
      vertex 3.5 15 78
      vertex 3.5 15 80
    endloop
  endfacet
  facet normal 0.923883 0.382676 0
    outer loop
      vertex 3.5 15 78
      vertex 4.23223 13.2322 80
      vertex 4.23223 13.2322 78
    endloop
  endfacet
  facet normal 0.923883 -0.382676 0
    outer loop
      vertex 3.5 15 80
      vertex 4.23223 16.7678 78
      vertex 4.23223 16.7678 80
    endloop
  endfacet
  facet normal 0.923883 -0.382676 0
    outer loop
      vertex 4.23223 16.7678 78
      vertex 3.5 15 80
      vertex 3.5 15 78
    endloop
  endfacet
  facet normal 0.623493 -0.781829 0
    outer loop
      vertex 3.19806 15.8678 78
      vertex 4.55496 16.9499 80
      vertex 3.19806 15.8678 80
    endloop
  endfacet
  facet normal 0.623493 -0.781829 0
    outer loop
      vertex 4.55496 16.9499 80
      vertex 3.19806 15.8678 78
      vertex 4.55496 16.9499 78
    endloop
  endfacet
endsolid OpenSCAD_Model
